<svg xmlns="http://www.w3.org/2000/svg" xmlns:xlink="http://www.w3.org/1999/xlink" width="425.197" height="283.465"><path fill="#214D9B" d="M0 0h425.197v283.634H0z"/><path fill="#FFF" stroke="#FFF" stroke-width=".75" d="M313.54 216.583h4.65v-64.21h9.268v64.21h4.634l-9.268 21.41z"/><path fill="#FFF" stroke="#FFF" stroke-width=".75" d="M301.75 152.373h46.008v7.773H301.75z"/><defs><path id="a" fill="#FFF" stroke="#FFF" stroke-width=".75" d="M311.66 210.256h-13.208c-.594 2.026-1.237 4.036-1.83 6.063h-11.856c4.633-12.257 9.515-24.433 14.147-36.706h12.682c4.617 12.273 9.498 24.449 14.132 36.706H313.54c-.61-2.027-1.269-4.037-1.88-6.063zm-2.407-7.922c-1.369-4.418-2.804-8.804-4.155-13.205-1.353 4.401-2.771 8.787-4.106 13.205h8.261z"/><path id="b" fill="#FFF" d="m361.378 164.796-1.781 5.665h-5.87l4.765 3.538-1.78 5.613 4.666-3.438 4.683 3.438-1.781-5.613 4.749-3.538h-5.853z"/></defs><use xlink:href="#a"/><use xlink:href="#a" x="35.454"/><use xlink:href="#b"/><use xlink:href="#b" x="-75.046"/><use xlink:href="#b" x="-37.434" y="81.634"/><use xlink:href="#b" x="-19.377" y="61.936"/><use xlink:href="#b" x="-56.693" y="61.936"/><path fill="#FFF" stroke="#FFF" stroke-width=".75" d="M318.108 152.373h22.871v7.889h-13.57v6.429h11.592v7.407h-11.592v15.015h-9.301v-36.74"/><path fill="#214D9B" d="m333.326 175.411 6.594 1.76 14.524-29.232-6.593-1.761m-48.814 0 11.947 29.249-5.405 1.744-11.947-29.232z"/><path fill="#FFF" d="M0-.149h212.401v141.545H0z"/><path fill="#214D9B" d="M1.256 1.173h67.89V140H1.256z"/><path fill="#EB2E2E" d="M142.856 1.373h67.89V140.2h-67.89z"/></svg>