<svg xmlns="http://www.w3.org/2000/svg" xmlns:xlink="http://www.w3.org/1999/xlink" width="1020" height="600" xmlns:v="https://vecta.io/nano"><g transform="matrix(1.333333 0 0 -1.333333 -409.39866 401.35999)"><path d="M307.049-149h764.979v450.056H307.049z" fill="#003893"/><g fill="#fff"><path d="M307.049-39h765.689V-.72H307.049z"/><path d="M307.049-18.479h765.973v94.326H307.049z"/></g><path d="M307.049-.701h766.042v38.28H307.049z" fill="#cf2027"/><g fill="#f7d116"><path d="M487.011-.701l4.764-14.636h15.426l-12.477-9.05 4.767-14.639-12.48 9.047-12.482-9.047 4.769 14.639-12.48 9.05h15.423m3.492 91.24L490.5 61.27h15.426l-12.48-9.045 4.767-14.636-12.48 9.045-12.48-9.045 4.767 14.636-12.477 9.045h15.423m222.873 14.585l4.767-14.604h15.426l-12.48-9.029 4.767-14.604-12.48 9.026-12.48-9.026 4.767 14.604-12.48 9.029h15.423"/><path d="M702.413-.742l4.767-14.607h15.429l-12.48-9.029 4.767-14.607-12.482 9.026-12.477-9.026 4.764 14.607-12.477 9.029h15.423"/><use xlink:href="#B"/><path d="M594.818-75.184l4.764-14.671h15.426l-12.477-9.066 4.767-14.671-12.48 9.066-12.482-9.066 4.769 14.671-12.48 9.066h15.423"/><use xlink:href="#B" x="-67.424" y="-21.877"/><path d="M662.105-53.358l4.764-14.671h15.429l-12.48-9.066 4.769-14.673-12.482 9.066-12.48-9.066 4.767 14.673-12.48 9.066h15.423m-127.64 12.933l4.767-14.671h15.426l-12.48-9.066 4.767-14.673-12.48 9.069-12.48-9.069 4.767 14.673-12.48 9.066h15.426M660.152 134.48l4.767-14.671h15.426l-12.477-9.066 4.767-14.671-12.482 9.066-12.48-9.066 4.767 14.671-12.477 9.066h15.423"/></g></g><defs ><path id="B" d="M594.762 154.675l4.767-14.671h15.429l-12.482-9.066 4.769-14.671-12.482 9.066-12.48-9.066 4.767 14.671-12.477 9.066h15.421"/></defs></svg>