<svg version="1.1" id="Layer_1" xmlns="http://www.w3.org/2000/svg" xmlns:xlink="http://www.w3.org/1999/xlink" x="0px" y="0px"
	 viewBox="0 0 1000 500" style="enable-background:new 0 0 1000 500;" xml:space="preserve">
<style type="text/css">
	.st0{fill:#012169;}
	.st1{fill:#0DB02B;}
	.st2{fill:#F7D116;}
	.st3{fill:#1C8A42;}
	.st4{fill:#FFFFFF;}
</style>
<rect class="st0" width="1000" height="500"/>
<path class="st1" d="M0,0h1000v500L0,0z"/>
<circle class="st2" cx="500" cy="250" r="90.3"/>
<path class="st1" d="M444.8,209.4c6.2,8.5,15.5,22.7,23.1,19c5.9,0,8.9,0.4,9.7,4.3c13.9,2.4,37.2-3.5,51.6-22.4c0,0,1.2,0.2,0.8-7
	c0.1-3.1,4.3-2.5,4.4-1.5c0.6,1.6,0.5,2.7,1.3,2.8c1.8-0.6,4.2-4.6,6.3-7.1c0.6-1.1,0.3-2.3,0.4-3.7c1.1-2.7,3.8-2.1,4.3-0.7
	c0.5,0.9,0.5,1.6,1,2.5c2.7,1.8,7.7,0.1,8,0.1c0.5-2.2,1.9-2,1.9-2c1.8-0.4,1.1-0.2,2.3,0.4c-1.1,12,2.4,12.5,2.1,18.7
	c0.1,6.9-2.1,8.8-2.1,11.4c0.7,3.2,10.8,3.3,7.3,6c-3.1,1.7,0,4.8-4.7,6c-13.7,7-16.4,12.9-16.4,12.9s-3.4,6.5-3.8,6.5
	c-2.3,4.3-5.2,2-6.8,4.1c-0.8,2.7-1.7,8.6-0.1,11.6c0.8,4.2-0.1,6.5-1.1,10.7c-0.9,8.8-4.4,10.1-4.8,13.2
	c-1.6,3.3,0.3,18.8-1.2,18.8c-10.2,0.2-18.1-2-22.1-2.8c3.9-17,2.4-31.9,2.4-33.4c-1-12.1-18.2-9.2-20.8-10.8
	c-2.2-0.5-3.5-2.2-4.3-3c-2.4-0.3-3.3-0.8-5.8-1.1c-1.2,0.6-0.5,1.2-3.2,2.1c-6.9,0.8-9.9-6-9.9-6c0.3-2.3-15.4,0.5-24-1.5
	c-3.5,2-5,7.7-7.9,8.4c-0.1,1.8-4.7-1.5-5.7-3.2c-0.2-5.1,4.5-7.4,4.5-7.4c3.7-2.6,5.9-3,7.7-4.8c0.9-4.5,0.4-7.8,2.3-11.1
	c1.6-2.6,4-1.4,5.6-2.5c1.7-1.1,2.5-8.7,0.9-10.7c0,0-6.9-6.3-7.3-6.6C438.5,213.1,443.4,209,444.8,209.4L444.8,209.4z"/>
<path class="st3" d="M919.6,194c-0.5,1.4-2.8,2-5.1,1.3c-2.3-0.7-3.8-2.5-3.3-3.9l0,0c0.5-1.4,2.8-2,5.1-1.3
	C918.7,190.8,920.1,192.6,919.6,194z"/>
<g>
	<path id="s" class="st4" d="M188.2,190.9L175.4,179l-12.9,11.8l1.4-17.4l-17.2-2.8l14.5-9.8l-8.6-15.2l16.7,5.2l6.5-16.2l6.3,16.3
		l16.7-5l-8.8,15.1l14.3,10l-17.3,2.5L188.2,190.9L188.2,190.9z"/>
	<path class="st4" d="M233.4,335.5l-13.8-9.2l-13.4,9.7l4.7-15.6l-13.6-9.4l16.7-0.4l5-15.5l5.6,15.3l16.7-0.2l-13.2,9.9
		L233.4,335.5L233.4,335.5z"/>
	<g>
		<path id="s_00000008118456176885572700000000640408104908809112_" class="st4" d="M190.7,460l-12.8-11.9L165,459.8l1.4-17.4
			l-17.2-2.8l14.5-9.8l-8.6-15.2l16.7,5.2l6.5-16.2l6.3,16.3l16.7-5l-8.8,15.1l14.3,10l-17.3,2.5L190.7,460L190.7,460z"/>
	</g>
	<g>
		<path id="s_00000126324216952198397530000018041711191977260179_" class="st4" d="M76.1,314.2l-12.8-11.9L50.4,314l1.4-17.4
			l-17.2-2.8l14.5-9.8l-8.6-15.2l16.7,5.2l6.5-16.2l6.3,16.3l16.7-5l-8.8,15.1l14.3,10l-17.3,2.5L76.1,314.2L76.1,314.2z"/>
	</g>
	<g>
		<path id="s_00000180340736376030375390000014532562670503343520_" class="st4" d="M296.6,276L283.8,264l-12.9,11.8l1.4-17.4
			l-17.2-2.8l14.5-9.8l-8.6-15.2l16.7,5.2l6.5-16.2l6.3,16.3l16.7-5l-8.8,15.1l14.3,10l-17.3,2.5L296.6,276L296.6,276z"/>
	</g>
</g>
<path class="st2" d="M941.2,188c-3.5-2-5.9-0.4-10.6-2c-3.9-1.3-3.2-2.7-6.6-3.8c-4-1.3-5.9,0.4-12.8,1.1c-2.4,0.2-6.2,0.5-8.4,0.2
	c-8.9-1.2-15.9-15-18.8-25.5c-3.9-13.6-1.2-22.9-3-42.5c-0.4-4.4-1.4-10.8-3.8-17.9c-1.7-5.1-5.1-13.1-21.6-32.3
	c-18.3-21.2-32.9-33-36.8-36.1c-6.2-5-11.7-8.8-15.7-11.5c0.6,6.2,2,15.4,5.4,25.9c3.9,12.2,8.7,20.9,13.3,29.2
	c7.7,13.8,27.1,48.1,24.4,58.1c-0.2,0.6-0.8,2.7-1.4,5.8c-0.8,4.1-1,7.5-1.1,9.8c-2.5-0.8-6.3-2.2-10.8-4.4
	c-8.3-4.1-13.7-8.4-16.4-10.5c-7.4-5.6-14.6-8.1-28.9-13.3c-19-6.9-36.8-9.6-51.1-10.5c9,13.1,17.8,21.9,24.3,27.4
	c12.1,10.4,24.9,17.5,31.2,21c7.7,4.3,10.9,5.5,18.9,10.6c12.3,7.9,17,13,20,17c3.7,4.9,7.1,9.4,7.9,16c0.8,6.4-1,13.3-6.4,21.9
	c-15.6,24.7-45.5,38.3-54.6,42.2c-11.4,4.9-29.3,12.5-56,16.3c-20.2,2.9-52.3,4.5-91.5-6.1c4.1,1.8,8.7,3.6,13.7,5.2
	c5.4,1.7,10.4,2.9,15,3.8c0.3,0.1-6.4,0.3-13.2-1.2c-8.2-1.8-14.7-5-19.2-7.7c3.4,2.7,8.7,6.4,15.5,9.4c8.8,3.9,17.8,5.7,44.4,5.8
	c16,0.1,24,0.1,31.9-0.7c22.6-2.3,39.5-7.8,55.5-13.3c13.5-4.6,25-8.5,39.9-16.2c21.5-11.2,31.7-20.8,55.6-30.5
	c7.5-3,11.3-4.6,16.1-6c14.2-4.2,19.6-3.1,29.4-8.6c8.8-4.9,11.6-9.9,12.4-11.4c1.3-2.4,1.5-3.9,2.9-5.7c3.7-4.7,10.2-4.9,15.2-4.3
	C944.8,191.4,943.4,189.4,941.2,188z M922,192.6c-0.6,0.8-1.7,1.1-2.6,0.9c-1.3-0.4-2.2-1.8-2.1-3.5l-3-1.6h7.7
	C922.9,189.7,922.8,191.5,922,192.6z"/>
</svg>
