<?xml version="1.0" encoding="UTF-8" standalone="no"?>
<svg
   width="1200"
   height="600"
   version="1.1"
   id="svg357"
   sodipodi:docname="Flag_of_Kiribati.svg"
   inkscape:version="1.2.2 (732a01da63, 2022-12-09)"
   xmlns:inkscape="http://www.inkscape.org/namespaces/inkscape"
   xmlns:sodipodi="http://sodipodi.sourceforge.net/DTD/sodipodi-0.dtd"
   xmlns:xlink="http://www.w3.org/1999/xlink"
   xmlns="http://www.w3.org/2000/svg"
   xmlns:svg="http://www.w3.org/2000/svg">
  <sodipodi:namedview
     id="namedview359"
     pagecolor="#ffffff"
     bordercolor="#666666"
     borderopacity="1.0"
     inkscape:showpageshadow="2"
     inkscape:pageopacity="0.0"
     inkscape:pagecheckerboard="0"
     inkscape:deskcolor="#d1d1d1"
     showgrid="false"
     inkscape:zoom="0.78666667"
     inkscape:cx="272.0339"
     inkscape:cy="-19.067797"
     inkscape:window-width="1920"
     inkscape:window-height="1009"
     inkscape:window-x="-8"
     inkscape:window-y="-8"
     inkscape:window-maximized="1"
     inkscape:current-layer="g5762" />
  <defs
     id="defs312">
    <style
       id="style310">.str1{stroke:#000;stroke-width:.46;stroke-miterlimit:22.9256}.fil3{fill:none}</style>
    <clipPath
       clipPathUnits="userSpaceOnUse"
       id="clipPath1198">
      <rect
         style="fill-rule:evenodd;stroke:none;stroke-width:40;stroke-miterlimit:8"
         id="rect1200"
         width="600"
         height="300"
         x="0"
         y="0" />
    </clipPath>
  </defs>
  <g
     id="g5792"
     transform="scale(2)">
    <path
       fill="#c81010"
       d="M 0,0 H 600 V 300 H 0 Z"
       id="path314"
       style="stroke-width:1.36083" />
    <g
       id="g5762">
      <g
         id="bird"
         inkscape:export-filename="..\..\Documents\Inkscape\Exported\FlagParts\KiribatiBird.png"
         inkscape:export-xdpi="1017.28"
         inkscape:export-ydpi="1017.28">
        <path
           id="bird_outline"
           d="M 305.75,27.34 C 286.67,19.45 274.99,18 261.94,17.87 c -18.9,0.13 -27.92,8.25 -45.94,9 7.14,7.69 33.02,9.57 43.93,-0.53 16.22,1.69 19.9,6.07 24.25,11.52 -6.77,-1.07 -14.57,-3.02 -21.04,4.14 -5.46,1.1 -7.99,0 -17.33,0 -4.36,0 -5.87,2.14 -5.81,6 2.82,-3.9 22.31,-1.6 27.09,0 3.67,1.23 7.57,6.32 12.22,7.15 12.19,2.17 29.68,-4.2 45.81,-8.54 L 360,42 H 336.07 L 366,36 h -32.54 c -0.69,-0.79 -2.34,-1.81 -3.66,-2.68 8.37,-5.39 15.77,-15.19 17.66,-19.92 15.09,-0.15 24.83,-1.55 36.54,-4.29 -77.18,-8.54 -59.61,0.67 -78.25,18.23 z"
           class="str1"
           style="fill:#f8d000" />
        <path
           id="eye"
           d="m 270.06,39.89 c 0.83,0 1.5,0.67 1.5,1.5 0,0.83 -0.67,1.5 -1.5,1.5 -0.82,0 -1.5,-0.67 -1.5,-1.5 0,-0.83 0.68,-1.5 1.5,-1.5 z"
           style="fill:#000000" />
        <path
           id="eye_outline"
           d="m 270.06,39.89 c 0.83,0 1.5,0.67 1.5,1.5 0,0.83 -0.67,1.5 -1.5,1.5 -0.82,0 -1.5,-0.67 -1.5,-1.5 0,-0.83 0.68,-1.5 1.5,-1.5 z"
           style="fill:none;fill-rule:nonzero;stroke:#000000;stroke-width:0.15;stroke-miterlimit:22.9256" />
        <path
           d="m 290.13,38.29 c 0,0 -6.27,3.71 -10.43,3.71 m 45.42,4.61 c 0,0 5.73,-4.61 10.95,-4.61 M 233.82,24.6 c 0,0 4.66,-2.44 6.86,-3.09 m 12.45,-0.39 c 0,0 7.39,-3.19 15.62,-3.03 m 4.36,3.81 c 0,0 9.69,-1.63 18.64,0.36 m -7.5,1.98 c 0,0 8.04,-1.35 15.75,0.83 m -7.48,1.62 c 0,0 8.19,0.11 12.26,1.69 M 216,26.87 c 0,0 11.49,3.14 20.83,-1.35"
           class="fil3 str1"
           id="path319" />
        <path
           d="m 217.46,28.23 c 0,0 14.92,3.68 21.74,-3.15"
           class="fil3 str1"
           id="path321" />
        <path
           d="m 222.46,30.81 c 0,0 11.24,3.62 20.08,-5.72 m -9.64,7.99 c 0,0 9.08,-2.6 12.52,-7.95 m -5.42,8.1 c 0,0 6.09,-4.22 8.28,-7.98 m 70.18,3.22 c 0,0 2.38,2.99 11.34,4.85 m -9.76,-6.26 c 0,0 3.85,3.85 11.87,4.79 m -9.93,-6.6 c 0,0 3.91,3.36 12.42,4.61 m -10.49,-6.54 c 0,0 5.98,3.99 12.79,4.45 M 326.27,20.8 c 0,0 4.19,3.91 12.5,4.88 m -10.74,-6.89 c 0,0 4.91,4.22 12.63,4.8 m -10.9,-6.9 c 0,0 3.01,3.48 12.94,4.39 m -11.18,-6.66 c 0,0 3.35,3.68 12.78,4.48 m -11.41,-6.35 c 0,0 5.9,4.45 12.73,4.36 m -11.56,-6.06 c 0,0 7.8,4.68 12.45,4.53 M 335.48,8.69 c 0,0 6.2,3.86 11.98,4.71 m -38.62,16.98 c 0,0 2.5,1.89 4.84,1.81 m -3.4,-3.21 c 0,0 2.17,1.85 5.15,1.84 m -3.4,-3.56 c 0,0 2.46,2.3 5.41,1.88 m -3.75,-3.54 c 0,0 2.94,2 5.57,1.94 m -3.73,-3.83 c 0,0 2.18,1.89 5.63,2.07 m -3.99,-4.15 c 0,0 2.56,2.27 5.82,2.35 m -4.09,-3.85 c 0,0 2.48,1.59 5.99,1.89 m -4.42,-3.64 c 0,0 3.35,1.18 6.42,1.47 m -4.61,-3.61 c 0,0 2.31,1.62 6.41,1.52 m -4.78,-3.66 c 0,0 2.74,1.82 6.26,1.86 m -5.06,-3.89 c 0,0 3.68,2.06 6.85,1.6 m -5.51,-4.03 c 0,0 2.33,2.55 6.67,2.46 m -5.73,-3.56 c 0,0 4.18,2.35 7.01,1.75 m -5.24,-3.08 c 0,0 3.17,1.93 6.07,1.85 m -2.85,-2.82 c 0,0 5.65,2.88 13.29,-0.24 m -8.48,2.29 c 0,0 11.42,2.62 16.37,-1.96"
           class="fil3 str1"
           id="path323" />
        <path
           d="m 346.15,8.97 c 0,0 7.85,0.82 16.63,-1.96"
           class="fil3 str1"
           id="path325" />
        <path
           d="m 351.37,9.02 c 0,0 11.92,2.4 32.63,0.09 M 243.24,32.96 c 0,0 5.33,-3.51 7.54,-7.55 m -3.55,6.9 c 0,0 4.29,-4.16 5.54,-6.74 m -1.58,5.67 c 0,0 3.53,-3.17 4.31,-5.39"
           class="fil3 str1"
           id="path327" />
        <path
           d="m 233.95,25.66 c 0,0 7.66,-1.67 25.98,0.68 m -18.9,-3.74 c 0,0 6.42,-3.11 12.14,-4.06 m -5.76,2.77 c 0,0 4.69,-2.21 11.61,-3.31 m -0.95,2.89 c 0,0 6.49,-2.77 14.43,-2.51 m -6.22,2.56 c 0,0 8.9,-1.99 17.1,-0.87 m 6.73,5.22 c 0,0 6.79,-0.31 14.6,1.63 M 278.5,22.56 c 0,0 9.73,-0.52 16.4,0.71 m 43.77,-14.7 c 0,0 3.36,2.91 12.72,4.76 m -7.44,-4.29 c 0,0 5.26,2.99 13.56,4.03 m -8.04,-3.99 c 0,0 7.38,3.21 15.18,3.41 m -7.01,-2.71 c 0,0 7.52,1.81 16.84,1.32 m -112.07,9.68 c 0,0 5.1,-2.1 14.14,-1.93 m 19.49,9.57 c 0,0 3.06,-0.37 6.86,1.44"
           class="fil3 str1"
           id="path329" />
        <path
           d="m 284.18,37.86 c 2.11,0.33 4.12,0.58 5.95,0.43 7.16,-3.91 12.05,-7.58 15.62,-10.95"
           class="fil3 str1"
           id="path331" />
      </g>
      <g
         fill="#f8d000"
         stroke="#000000"
         stroke-miterlimit="22.926"
         stroke-width="0.46"
         id="g348"
         transform="translate(1.5152576e-4)">
        <g
           id="rays_6">
          <g
             id="rays_2"
             transform="rotate(-84.706,300,156)">
            <path
               id="wavy"
               d="M 290.63,105.87 A 50,50 0 0 1 300,66 a 50,50 0 0 0 9.37,39.87"
               transform="rotate(13.4,300,156)" />
            <path
               id="straight"
               d="M 290.63,105.87 300,63 l 9.37,42.87" />
          </g>
          <use
             xlink:href="#rays_2"
             transform="rotate(21.18,300,156)"
             id="use337" />
          <use
             xlink:href="#rays_2"
             transform="rotate(42.35,300,156)"
             id="use339" />
        </g>
        <use
           xlink:href="#rays_6"
           transform="rotate(63.53,300,156)"
           id="use342" />
        <use
           xlink:href="#rays_6"
           transform="rotate(127.06,300,156)"
           id="use344" />
        <circle
           cx="300"
           cy="156"
           r="51"
           id="circle346" />
      </g>
      <g
         id="g536"
         clip-path="url(#clipPath1198)"
         inkscape:export-filename="..\..\Documents\Inkscape\Exported\FlagParts\KiribatiOceanWaves.png"
         inkscape:export-xdpi="614.40002"
         inkscape:export-ydpi="614.40002">
        <path
           fill="#183070"
           d="M 0,162 H 600 V 300 H 0 Z"
           id="path350" />
        <path
           id="wave"
           fill="none"
           stroke="#ffffff"
           stroke-width="24"
           d="m -36,168 q 30,-12 60,0 30,12 60,0 30,-12 60,0 30,12 60,0 30,-12 63,0 33,12 66,0 33,-12 63,0 30,12 60,0 30,-12 60,0 30,12 60,0 30,-12 60,0" />
        <use
           xlink:href="#wave"
           y="48"
           id="use353" />
        <use
           xlink:href="#wave"
           y="96"
           id="use355" />
      </g>
    </g>
  </g>
</svg>
