<svg version="1.1" xmlns="http://www.w3.org/2000/svg" xmlns:xlink="http://www.w3.org/1999/xlink" width="929.35" height="489.13158" viewBox="0,0,929.35,489.13158"><g transform="translate(617.29062,89.56579)"><g data-paper-data="{&quot;isPaintingLayer&quot;:true}" fill-rule="nonzero" stroke="none" stroke-width="1" stroke-linecap="butt" stroke-linejoin="miter" stroke-miterlimit="10" stroke-dasharray="" stroke-dashoffset="0" style="mix-blend-mode: normal"><path d="M-617.29062,399.56579v-489.13158h929.35v489.13158z" fill="#003893"/><path d="M-617.29062,383.91358l929.35,-473.47937v97.82633l-929.35,384.78351z" fill="#dd7500"/><path d="M-617.29062,391.73967l929.35,-385.43567v95.86979l-929.35,297.392z" fill="#ffffff"/><path d="M-431.42062,42.4998l22.82614,-57.06535l-9.78263,60.32623l35.86965,-48.91316l-26.08702,55.43491l47.28272,-39.13054l-37.50009,47.28272l55.43491,-24.45658l-48.91316,35.86965l60.32623,-9.78263l-58.69579,22.82614l104.34807,4.89133l-104.34807,6.52174l58.69579,22.82614l-60.32623,-9.78263l48.91316,35.86965l-55.43491,-26.08702l37.50009,47.28272l-47.28272,-37.50009l26.08702,55.43491l-35.86965,-48.91316l9.78263,60.32623l-22.82614,-58.69579l-6.52174,104.34807l-4.89133,-104.34807l-22.82614,58.69579l9.78263,-60.32623l-35.86965,48.91316l24.45658,-55.43491l-47.28272,37.50009l39.13054,-47.28272l-55.43491,26.08702l48.91316,-35.86965l-60.32623,9.78263l57.06535,-22.82614l-104.34807,-6.52174l104.34807,-4.89133l-57.06535,-22.82614l60.32623,9.78263l-48.91316,-35.86965l55.43491,24.45658l-39.13054,-47.28272l47.28272,39.13054l-24.45658,-55.43491l35.86965,48.91316l-9.78263,-60.32623l22.82614,57.06535l4.89133,-104.34807z" fill="#ffffff"/></g></g></svg>