<?xml version="1.0" encoding="UTF-8" standalone="no"?>
<!-- Created with Inkscape (http://www.inkscape.org/) -->

<svg
   version="1.1"
   width="1090.625"
   height="308.125"
   id="svg2"
   xml:space="preserve"
   sodipodi:docname="Flags_of_New_Caledonia.svg"
   inkscape:version="1.1 (c68e22c387, 2021-05-23)"
   xmlns:inkscape="http://www.inkscape.org/namespaces/inkscape"
   xmlns:sodipodi="http://sodipodi.sourceforge.net/DTD/sodipodi-0.dtd"
   xmlns="http://www.w3.org/2000/svg"
   xmlns:svg="http://www.w3.org/2000/svg"
   xmlns:rdf="http://www.w3.org/1999/02/22-rdf-syntax-ns#"
   xmlns:cc="http://creativecommons.org/ns#"
   xmlns:dc="http://purl.org/dc/elements/1.1/"><sodipodi:namedview
     id="namedview40"
     pagecolor="#ffffff"
     bordercolor="#666666"
     borderopacity="1.0"
     inkscape:pageshadow="2"
     inkscape:pageopacity="0.0"
     inkscape:pagecheckerboard="0"
     showgrid="false"
     inkscape:zoom="2.4582145"
     inkscape:cx="512.97395"
     inkscape:cy="251.60538"
     inkscape:window-width="1920"
     inkscape:window-height="1009"
     inkscape:window-x="-8"
     inkscape:window-y="-8"
     inkscape:window-maximized="1"
     inkscape:current-layer="g10" /><metadata
     id="metadata8"><rdf:RDF><cc:Work
         rdf:about=""><dc:format>image/svg+xml</dc:format><dc:type
           rdf:resource="http://purl.org/dc/dcmitype/StillImage" /></cc:Work></rdf:RDF></metadata><defs
     id="defs6"><clipPath
       id="clipPath28"><path
         d="m 0,246.5 872.5,0 L 872.5,0 0,0 0,246.5 z"
         inkscape:connector-curvature="0"
         id="path30" /></clipPath></defs><g
     transform="matrix(1.25,0,0,-1.25,0,308.125)"
     id="g10"><path
       d="m 0,0 369.75,0 0,246.5 L 0,246.5 0,0 z"
       inkscape:connector-curvature="0"
       id="path12"
       style="fill:#ce1126;fill-opacity:1;fill-rule:nonzero;stroke:none" /><path
       d="m 0,0 246.5,0 0,246.5 L 0,246.5 0,0 z"
       inkscape:connector-curvature="0"
       id="path14"
       style="fill:#ffffff;fill-opacity:1;fill-rule:nonzero;stroke:none" /><path
       d="m 0,0 123.25,0 0,246.5 L 0,246.5 0,0 z"
       inkscape:connector-curvature="0"
       id="path16"
       style="fill:#002654;fill-opacity:1;fill-rule:nonzero;stroke:none" /><path
       d="m 379.75,0.125 492.75,0 0,246.375 -492.75,0 0,-246.375 z"
       inkscape:connector-curvature="0"
       id="path18"
       style="fill:#009543;fill-opacity:1;fill-rule:nonzero;stroke:none" /><path
       d="m 379.75,82.25 492.75,0 0,164.25 -492.75,0 0,-164.25 z"
       inkscape:connector-curvature="0"
       id="path20"
       style="fill:#ed4135;fill-opacity:1;fill-rule:nonzero;stroke:none" /><path
       d="m 379.75,164.375 492.75,0 0,82.125 -492.75,0 0,-82.125 z"
       inkscape:connector-curvature="0"
       id="path22"
       style="fill:#0035ad;fill-opacity:1;fill-rule:nonzero;stroke:none" /><g
       id="g24"><g
         clip-path="url(#clipPath28)"
         id="g26"><g
           transform="translate(544,204.0571)"
           id="g32"><path
             d="m 0,0 c 44.594,0 80.745,-36.15 80.745,-80.745 0,-44.594 -36.151,-80.746 -80.745,-80.746 -44.595,0 -80.746,36.152 -80.746,80.746 C -80.746,-36.15 -44.595,0 0,0"
             inkscape:connector-curvature="0"
             id="path34"
             style="fill:#fae600;fill-opacity:1;fill-rule:nonzero;stroke:none" /></g><g
           transform="translate(544,204.0571)"
           id="g36"><path
             d="m 0,0 c 44.594,0 80.745,-36.15 80.745,-80.745 0,-44.594 -36.151,-80.746 -80.745,-80.746 -44.595,0 -80.746,36.152 -80.746,80.746 C -80.746,-36.15 -44.595,0 0,0 z"
             inkscape:connector-curvature="0"
             id="path38"
             style="fill:none;stroke:#000000;stroke-width:5;stroke-linecap:butt;stroke-linejoin:miter;stroke-miterlimit:4;stroke-opacity:1;stroke-dasharray:none" /></g><g
           transform="translate(544,203.7954)"
           id="g40"><path
             d="m 0,0 0,-137.97 m -13.688,65.699 27.376,0 m -27.376,-20.257 27.376,0"
             inkscape:connector-curvature="0"
             id="path42"
             style="fill:#000000;fill-opacity:1;fill-rule:nonzero;stroke:#000000;stroke-width:6;stroke-linecap:butt;stroke-linejoin:miter;stroke-miterlimit:4;stroke-opacity:1;stroke-dasharray:none" /></g><g
           transform="translate(511.4902,49.1699)"
           id="g44"><path
             d="m 0,0 c 32.954,-13.457 63.842,-0.826 63.842,-0.826 0,0 -11.659,12.618 -17.638,17.546 -5.831,4.805 -22.989,4.615 -28.844,0 C 12.474,12.866 -1.539,-1.332 0,0"
             inkscape:connector-curvature="0"
             id="path46"
             style="fill:#000000;fill-opacity:1;fill-rule:nonzero;stroke:none" /></g><g
           transform="translate(544,99.2217)"
           id="g48"><path
             d="m 0,0 c 4.989,0 9.034,-5.882 9.034,-13.14 0,-7.256 -4.045,-13.14 -9.034,-13.14 -4.989,0 -9.033,5.884 -9.033,13.14 C -9.033,-5.882 -4.989,0 0,0"
             inkscape:connector-curvature="0"
             id="path50"
             style="fill:#000000;fill-opacity:1;fill-rule:nonzero;stroke:none" /></g><g
           transform="translate(544,128.3281)"
           id="g52"><path
             d="m 0,0 c 6.047,0 10.95,-3.104 10.95,-6.933 0,-3.827 -4.903,-6.93 -10.95,-6.93 -6.048,0 -10.95,3.103 -10.95,6.93 C -10.95,-3.104 -6.048,0 0,0"
             inkscape:connector-curvature="0"
             id="path54"
             style="fill:#000000;fill-opacity:1;fill-rule:nonzero;stroke:none" /></g><g
           transform="translate(544,164.3755)"
           id="g56"><path
             d="M 0,0 C 6.047,0 10.95,-4.902 10.95,-10.951 10.95,-16.998 6.047,-21.9 0,-21.9 c -6.048,0 -10.95,4.902 -10.95,10.949 C -10.95,-4.902 -6.048,0 0,0"
             inkscape:connector-curvature="0"
             id="path58"
             style="fill:#000000;fill-opacity:1;fill-rule:nonzero;stroke:none" /></g><g
           transform="translate(557.1406,194.2139)"
           id="g60"><path
             d="m 0,0 c -0.004,0.008 0.949,-1.571 -1.048,-5.167 -9.541,-17.181 -19.115,-17.553 -20.931,-19.033 -2.004,-1.629 -2.849,-1.519 -2.849,-1.519 0.143,1.473 0.276,7.49 0.381,8.07 1.447,8.028 13.576,7.918 23.067,16.138 1.483,1.283 1.376,1.519 1.376,1.519 L 0,0 z"
             inkscape:connector-curvature="0"
             id="path62"
             style="fill:#000000;fill-opacity:1;fill-rule:nonzero;stroke:none" /></g><g
           transform="translate(525.1113,157.2573)"
           id="g64"><path
             d="m 0,0 c 0,0 2.143,-6.148 2.463,-12.319 0.514,-9.852 9.954,-10.129 16.426,-10.129 l 0,5.475 c -4.851,0 -9.063,0.721 -12.592,7.939 C 4.556,-5.473 0,0 0,0"
             inkscape:connector-curvature="0"
             id="path66"
             style="fill:#000000;fill-opacity:1;fill-rule:nonzero;stroke:none" /></g><g
           transform="translate(524.8379,77.8691)"
           id="g68"><path
             d="m 0,0 c 0,0 3.446,4.253 7.479,14.223 2.105,5.2 7.091,8.225 11.683,8.225 l 0,7.664 C 8.745,30.112 3.749,26.251 3.223,20.607 2.14,9.012 0,0 0,0"
             inkscape:connector-curvature="0"
             id="path70"
             style="fill:#000000;fill-opacity:1;fill-rule:nonzero;stroke:none" /></g><g
           transform="translate(562.8887,157.2573)"
           id="g72"><path
             d="m 0,0 c 0,0 -2.144,-6.148 -2.464,-12.319 -0.512,-9.852 -9.953,-10.129 -16.425,-10.129 l 0,5.475 c 4.85,0 9.063,0.721 12.593,7.939 C -4.555,-5.473 0,0 0,0"
             inkscape:connector-curvature="0"
             id="path74"
             style="fill:#000000;fill-opacity:1;fill-rule:nonzero;stroke:none" /></g><g
           transform="translate(563.1621,77.8691)"
           id="g76"><path
             d="m 0,0 c 0,0 -3.447,4.253 -7.479,14.223 -2.105,5.2 -7.09,8.225 -11.683,8.225 l 0,7.664 c 10.418,0 15.412,-3.861 15.939,-9.505 C -2.141,9.012 0,0 0,0"
             inkscape:connector-curvature="0"
             id="path78"
             style="fill:#000000;fill-opacity:1;fill-rule:nonzero;stroke:none" /></g></g></g></g></svg>
