<?xml version="1.0" encoding="UTF-8" standalone="no"?>
<!-- Created with Inkscape (http://www.inkscape.org/) -->

<svg
   xmlns:dc="http://purl.org/dc/elements/1.1/"
   xmlns:cc="http://creativecommons.org/ns#"
   xmlns:rdf="http://www.w3.org/1999/02/22-rdf-syntax-ns#"
   xmlns:svg="http://www.w3.org/2000/svg"
   xmlns="http://www.w3.org/2000/svg"
   version="1.0"
   width="920"
   height="460"
   id="svg571">
  <defs
     id="defs573" />
  <rect
     width="920"
     height="460"
     x="0"
     y="0"
     id="rect608"
     style="fill:#007934" />
  <rect
     width="360"
     height="460"
     x="280"
     y="0"
     id="rect609"
     style="fill:#ffffff" />
  <path
     d="m 463.32224,30.575108 c -0.80416,8.703834 -1.60996,17.4117 -2.41412,26.115534 -2.94762,0.444138 -5.89436,0.886322 -8.84202,1.330362 -2e-5,0 6.14104,3.448348 7.21324,6.912086 0.1716,0.55476 0.103,1.01391 -0.1454,1.359286 -0.0816,0.10798 -0.20658,0.227946 -0.31994,0.318128 -1.77894,1.367072 -7.03876,0.723028 -7.03876,0.723028 0,-2e-5 6.96802,5.87945 7.50412,8.011066 0.012,0.0499 0.028,0.0964 0.029,0.14472 -6.8e-4,0.03992 0.008,0.1058 0,0.14452 -0.008,0.03074 -0.0458,0.08562 -0.0582,0.11576 -0.0476,0.1046 -0.1334,0.222498 -0.23268,0.31813 -1.63824,1.513162 -9.36558,1.9377 -9.36558,1.9377 0,0 8.56768,6.109056 9.1038,9.57281 0.48584,3.139102 0.0784,4.977718 0,5.292514 -0.59872,-0.511406 -14.41498,-12.122178 -23.3267,-8.734112 -0.44388,0.230602 -0.70656,0.450326 -0.8144,0.665182 -0.0474,0.10718 -0.0574,0.240762 -0.029,0.347052 0.62434,1.931254 13.22728,3.909732 22.01782,11.510512 -0.21806,1.90215 -25.05472,-6.050652 -25.97346,-1.07008 0.77684,1.404396 26.72932,5.144964 28.64936,8.531654 -9.55778,0.3554 -29.30276,-2.10349 -28.64936,1.04116 -1.99738,3.6306 18.649,1.58001 27.31142,4.54058 2.53906,2.86896 2.29402,5.2791 -2.12326,5.58172 -8.34876,-3.96933 -27.03406,-6.91879 -27.07872,-1.85093 4.4e-4,0.006 -9.2e-4,0.0238 0,0.0289 0.002,0.006 0.027,0.024 0.029,0.0289 0.008,0.016 0.016,0.0433 0.0292,0.0579 0.0298,0.0285 0.0962,0.0603 0.1454,0.0868 2.11004,1.05249 19.5102,0.53911 26.06072,4.85871 -9.28786,2.10082 -40.7825,-4.26178 -40.98166,-1.15683 0.89722,1.45021 5.88066,7.81488 14.45558,7.54834 8.57492,-0.26653 28.41432,3.4668 29.7546,6.13122 0.0418,0.0832 0.0414,0.16866 0.029,0.23138 -0.58064,1.85823 -26.12552,-5.66833 -35.94986,-1.04116 -10.1823,4.79672 29.1985,1.88888 35.62992,7.75078 6.43144,5.86193 -12.85586,-0.54949 -12.85586,-0.54949 2e-5,0 -26.78276,-3.71573 -30.8017,-1.85093 -4.01988,1.86574 -8.58026,6.13123 -8.58026,6.13123 0,0 2.67218,5.31656 5.35176,4.25136 0.40822,-0.16248 0.68724,-0.19562 0.8435,-0.14452 0.004,0.002 0.0254,-0.002 0.0292,0 0.004,0.002 0.0256,0.0269 0.0292,0.0289 0.006,0.004 0.0238,0.024 0.0292,0.0289 0.004,0.006 0.0244,0.0234 0.029,0.0289 0.002,0.002 0.0274,0.0257 0.0292,0.0289 0.012,0.0267 0.0246,0.083 0.029,0.11578 0.0632,0.79931 -1.8324,3.12346 -1.8324,3.12346 0,0 37.53212,9.04113 45.83898,17.03439 8.30684,7.99418 -47.70046,-12.52272 -47.70046,-12.52272 0,-2e-5 -22.51042,8.25885 1.33794,8.79193 -2.65806,3.8668 1.10098,6.24681 1.33794,6.39152 0,0 39.6677,8.26788 43.68664,14.66287 4.01986,6.39498 -27.0627,-6.13864 -34.0302,-9.60172 -6.72168,-3.34226 -25.43152,1.7676 -26.49702,3.32589 -0.008,0.012 -0.0238,0.0459 -0.029,0.0579 -0.002,0.006 0.002,0.0232 0,0.0289 -0.002,0.012 -8.8e-4,0.0473 0,0.0579 9.2e-4,0.006 -9.4e-4,0.0238 0,0.0289 0.002,0.006 -0.002,0.0238 0,0.0289 0.002,0.006 0.0266,0.0236 0.029,0.0289 0.002,0.006 -0.002,0.0236 0,0.0289 0.012,0.0214 0.0414,0.0653 0.0582,0.0868 0.004,0.006 0.0242,0.0236 0.029,0.0289 1.19858,1.3133 9.55038,3.1219 9.80186,5.37928 9.2e-4,0.01 -6.8e-4,0.02 0,0.0289 0.004,0.12056 -0.0334,0.2632 -0.0874,0.37598 -1.052,2.02828 -11.01624,2.89107 -11.43066,4.80086 -0.006,0.0327 -0.029,0.0824 -0.029,0.11578 -2e-5,2.1323 50.12504,12.52438 63.52304,23.71514 13.398,11.19074 -39.38196,-13.33253 -39.38196,-13.33253 0,0 2.94766,3.99501 0,5.06115 -2.94766,1.06522 -13.41918,-14.92017 -30.569,-5.06115 -3.12358,4.05631 14.97398,7.27579 19.57462,7.72185 -1.57108,4.01656 -2.94114,5.34528 3.49028,9.34146 0.70332,0.43718 1.0982,0.7013 1.25068,0.83872 0.004,0.004 0.025,0.0248 0.0292,0.029 0.004,0.004 0.026,0.0254 0.029,0.029 0.002,0.002 -9.2e-4,0.0264 0,0.029 -5.8e-4,0.002 9.2e-4,0.0276 0,0.029 -0.002,4e-4 -0.0256,-1.2e-4 -0.029,0 -0.004,-2e-4 -0.0246,4.8e-4 -0.0292,0 -0.99616,-0.155 -12.5504,-6.05912 -13.7575,-6.30476 -0.012,-0.002 -0.0492,7.2e-4 -0.0582,0 -0.004,2.2e-4 -0.0262,-5.4e-4 -0.029,0 0,0.53304 1.33794,6.941 1.33794,6.941 -5.93722,-4.79576 -13.1137,-6.2418 -19.83642,-1.33034 -0.01,0.28412 -0.0592,4.88248 6.68968,7.72188 -3.8039,7.72856 4.29862,5.32904 17.16054,12.5227 -19.11648,-4.9679 -20.6466,4.26016 -6.98054,6.39154 13.66604,2.13134 51.18978,3.46678 60.03276,14.92316 1.8653,2.41678 2.37154,3.63204 2.0069,4.02 -1.47486,1.32908 -15.04444,-8.42952 -17.0151,-8.79194 -0.004,0.002 -0.025,-0.004 -0.0292,0 -0.004,0.004 -0.025,0.0244 -0.0292,0.029 -0.025,0.0312 -0.0624,0.093 -0.0874,0.1446 -0.48156,1.06002 -0.93074,5.6685 -0.93074,5.6685 -5.71658,-3.29006 -10.96224,-6.24138 -17.8004,-7.63514 -0.5361,1.06522 -0.42372,2.57884 -0.95982,3.64404 -6.20526,-4.44964 -11.61122,-7.57796 -20.62172,-8.01108 -0.3574,1.42152 -0.71878,2.85878 -1.07618,4.2803 2e-5,-2e-5 -7.51224,-9.32594 -22.25052,0 -8.22958,5.86654 31.08906,2.12418 37.52048,9.05222 6.43144,6.92714 1.33796,7.98216 1.33796,7.98216 -5.35922,-1.95368 -10.69608,-3.88834 -16.0553,-5.842 0,0 -19.04364,-3.48186 -24.40284,0.78086 -5.3592,4.26362 78.24292,14.65824 80.65448,26.11554 1.626,6.2136 -19.64236,-6.5065 -38.04402,-11.97326 -0.7118,2.03392 -1.44052,4.06838 -2.15232,6.10232 -0.43642,-0.4293 -7.5548,-7.31392 -15.53174,-8.50274 -0.002,0.004 -0.027,0.0222 -0.0292,0.029 -9.4e-4,0.01 2.4e-4,0.0448 0,0.058 0.012,0.87446 1.62878,7.11452 1.62878,7.11452 -2e-5,2e-5 -20.61312,-9.60286 -31.06346,-4.54058 -10.45128,5.06232 36.43292,7.72604 40.7199,12.52274 0.46888,0.52454 0.66404,0.90692 0.63988,1.15686 -0.008,0.0432 -0.0374,0.109 -0.0582,0.1444 -1.03558,1.50814 -15.01668,-4.06176 -16.4043,-1.30144 -1.60832,3.19748 -24.38004,-5.85334 -24.11198,-1.59066 0.26804,4.26364 3.2285,6.65182 3.2285,6.65182 -2e-5,0 47.43008,4.52694 49.03836,10.1223 1.60744,5.59538 -26.26432,-3.1813 -26.26432,-3.1813 0,0 -2.6961,3.9772 -0.55262,5.84202 0.0838,0.0728 0.1506,0.1426 0.1744,0.1734 7e-4,0.002 -1.6e-4,0.0274 0,0.029 -0.002,-6.4e-4 -0.0254,9.2e-4 -0.0292,0 -0.96878,-0.31776 -16.07026,-10.15284 -14.601,-2.60288 -5.90928,-2.33958 -21.1655,-9.58644 -19.02202,-3.99108 2.11198,5.51312 41.90474,13.36338 43.07584,13.5928 -1.05232,0.0824 -17.88138,1.48236 -17.10236,5.87096 -22.555,-13.66334 -22.50188,-5.46962 -21.98872,-4.82978 9.2e-4,8.8e-4 -9.4e-4,0.0282 0,0.029 -1.26712,-0.1992 -29.01588,-7.07298 -6.95148,4.80086 11.83338,6.36736 14.71666,8.8497 14.7755,9.80418 3.8e-4,0.021 0.002,0.0672 0,0.0868 -0.004,0.0254 -0.0202,0.064 -0.029,0.0868 -0.002,0.006 -0.0262,0.0236 -0.0292,0.029 -0.01,0.016 -0.018,0.0434 -0.029,0.0578 -0.004,0.004 -0.025,0.0244 -0.0292,0.029 -0.004,0.004 -0.0244,0.0248 -0.0292,0.029 -0.004,0.004 -0.024,0.025 -0.029,0.029 -0.006,0.004 -0.0236,0.0252 -0.0292,0.029 -0.45872,0.2918 -1.56722,0.1696 -1.89056,0.1734 -0.014,5e-4 -0.0482,-9.2e-4 -0.0582,0 -0.006,0.002 -0.028,0.026 -0.029,0.029 0.004,0.004 0.024,0.022 0.029,0.029 0.3148,0.46536 2.04598,5.16464 1.94874,5.9866 -0.002,0.014 -0.0256,0.0472 -0.0292,0.0578 -0.002,0.004 0.002,0.0248 0,0.029 -9.2e-4,0.002 -0.0276,-0.002 -0.0292,0 -0.002,9.2e-4 0.002,0.028 0,0.029 -0.002,5.2e-4 -0.027,-3.6e-4 -0.0292,0 -0.002,-2.4e-4 -0.026,4.8e-4 -0.0292,0 -0.96696,-0.24222 -15.58106,-8.00782 -20.59264,-8.53164 -5.0921,-0.5331 -29.21502,6.6534 -3.49028,17.84416 25.72474,11.19076 41.52592,-2.66928 55.72808,-1.07008 14.20218,1.59828 20.91398,4.0015 19.57466,8.53166 -1.34028,4.52926 -14.52794,-14.8496 -28.3876,1.90878 -15.7658,-3.10216 -26.46236,-4.89736 -18.32396,6.62288 -25.74708,-9.56748 -41.46984,2.91892 -9.04562,7.98216 31.86204,0.93378 51.45248,-7.72188 51.45248,-7.72188 0,2e-5 5.37502,9.87798 13.14672,2.94994 7.4065,-6.60244 7.98912,1.80048 8.26032,2.60288 0.004,0.012 0.025,0.0222 0.0292,0.029 0.002,0.002 -0.002,0.0278 0,0.029 0.002,0 0.026,4e-4 0.029,0 0.57222,-0.143 7.475,-3.21022 7.475,-3.21022 0.62546,2e-5 1.26512,0 1.89056,0 0,21.31538 0,42.62868 0,63.94404 8.66426,0.0888 17.30922,0.1714 25.97348,0.2603 0,0 -8.30708,-55.67408 -3.75204,-63.13424 4.41358,-7.22706 8.58626,-6.44696 8.84202,-6.39154 0,0 16.88482,5.05098 18.76026,4.25136 0.0218,-0.01 0.0664,-0.018 0.0874,-0.029 0.014,-0.008 0.045,-0.021 0.0582,-0.029 0.0326,-0.0206 0.0866,-0.0628 0.1164,-0.0868 0.006,-0.004 0.0232,-0.024 0.0292,-0.029 1.3722,-1.24562 -0.0258,-6.16092 8.55116,-5.40816 2.64828,-0.95788 1.63778,-5.1559 3.34484,-6.1891 0.0302,-0.018 0.0846,-0.0424 0.1164,-0.0578 0.0644,-0.0302 0.161,-0.065 0.23268,-0.0868 0.1,-0.0286 0.23388,-0.0462 0.34902,-0.0578 2.67964,-0.26652 54.39178,14.37578 65.6463,0.52058 -2.94766,-7.72674 -13.14298,-0.52682 -15.8226,-0.2603 -2.41156,2e-5 -12.60224,-4.79576 -18.49846,0 -5.3592,-3.99616 -29.72554,-6.65178 -29.72554,-6.65178 -3.21572,-3.19748 58.14872,1.58812 61.63248,-0.80978 7.23466,-7.1946 -13.3922,-6.38898 -16.60788,-3.9911 -5.71664,-3.46402 -12.8996,-3.20766 -17.27688,-0.80976 -2.09884,-4.992 -22.02366,-2.82986 -33.09946,-4.25138 -3.54522,-2.0675 -2.95486,-3.25416 -0.55262,-4.54056 23.1345,0.97728 46.15122,3.98088 69.39834,2.9499 6.2834,-8.14504 -7.91014,-11.21664 -16.60792,-4.28028 -5.10606,-8.34956 -15.54478,-0.2714 -22.51226,-1.07006 -6.96662,-0.79962 -3.75208,-9.31392 5.08998,-7.98216 8.84298,1.33266 24.6546,-0.5435 27.60226,-4.54058 2.94672,-3.99616 -1.75958,-8.04488 -16.34612,-4.25138 -4.93666,-4.79764 -15.79234,-0.008 -20.8835,1.59066 -6.77394,-3.7574 -22.53392,-0.52288 -27.89312,0.80978 -5.2466,-3.24284 27.60228,-8.53164 27.60228,-8.53164 12.67948,-0.22304 19.83126,-2.40438 23.8502,-3.4705 19.1677,-10.21536 -0.26688,-11.30044 -10.3254,-3.87542 -6.2434,-4.84666 -12.17316,0.41904 -17.8004,2.28476 -5.27556,1.74826 -15.03152,3.02172 -16.2298,2.5161 -0.014,-0.006 -0.0468,-0.0218 -0.0582,-0.029 -0.002,-0.002 -0.0262,-0.0264 -0.0292,-0.029 -0.002,-0.002 -0.0274,-0.0262 -0.029,-0.029 -9.2e-4,-0.002 6.4e-4,-0.026 0,-0.029 0,-0.002 -4.6e-4,-0.0256 0,-0.029 0.004,-0.012 0.0208,-0.044 0.029,-0.0578 0.79028,-1.21828 15.24088,-10.03554 15.24088,-10.03554 0,-2e-5 18.76048,-1.34678 22.5123,-1.87984 2.28624,-0.32486 10.29872,-4.09652 10.2963,-5.49498 -0.0672,-0.86806 -3.40562,-0.78834 -13.52482,1.7642 -9.11102,0.79958 -14.46206,0.28294 -17.94584,0.54946 -5.60284,-0.57596 -7.96334,-1.16322 -8.43482,-1.6774 -0.018,-0.0218 -0.047,-0.0652 -0.0582,-0.0868 -0.0392,-0.0928 -0.014,-0.20012 0.0582,-0.28922 0.018,-0.0206 0.0634,-0.0664 0.0874,-0.0868 1.3734,-1.09074 10.23812,-1.87986 10.23812,-1.87986 0,2e-5 27.0631,-2.46782 28.85298,-3.8754 0.006,-0.006 0.0234,-0.0234 0.029,-0.029 0.01,-0.012 0.0228,-0.0468 0.029,-0.0578 0.002,-0.006 0.0276,-0.0236 0.0292,-0.029 0.55686,-11.0023 -22.95944,-5.92174 -23.58848,-5.84202 0.0672,-7.73634 -21.22412,-0.1136 -22.22142,0 -0.002,-2.8e-4 -0.0278,5.2e-4 -0.0292,0 -0.91604,-0.53664 -1.31526,-1.10286 -1.39612,-1.61956 -0.0262,-0.197 -9.2e-4,-0.41868 0.0582,-0.60734 0.53332,-1.59518 3.75204,-2.83424 3.75204,-2.83424 5.89528,-1.42058 14.70966,-1.86414 17.0151,-3.73078 0,0 16.63886,-0.1456 18.61482,-4.5406 -4.08314,-11.20092 -35.21318,1.98282 -39.38196,3.99108 -0.8353,0 -1.34682,-0.20866 -1.5997,-0.5495 -1.36878,-1.98856 5.3863,-8.53708 5.61352,-8.76302 0.002,-0.002 0.0238,-0.0268 0.029,-0.029 1.02946,-0.29038 25.88382,-1.55492 37.75316,-17.55496 0.83768,-9.89328 -14.1938,5.58172 -14.1938,5.58172 -1.12246,-12.83068 -16.34518,0.81374 -25.18814,1.87986 -8.84208,1.06522 -9.10104,-4.00124 -2.93766,-4.80086 6.16242,-0.79868 13.12414,-0.2758 16.6079,-9.60174 3.48288,-9.32594 13.94714,0.54304 15.82256,-2.921 1.81688,-3.35578 -3.42372,-6.21632 -3.75202,-6.3915 2e-5,0 7.76562,-8.01734 -4.82824,-7.75082 -12.4671,0.26386 -28.58518,-1.55362 -28.9111,-1.59062 0.78186,-0.29674 13.48022,-5.05906 25.42084,-4.80086 12.32672,0.26652 5.62446,-8.79197 -6.16616,-8.79197 -11.78968,0 -17.94584,-3.99107 -17.94584,-3.99107 6.6995,-2.48673 13.3987,-4.97486 20.0982,-7.46157 -0.44678,-1.86483 -0.89122,-3.71692 -1.33796,-5.58174 0,0 11.7855,-9.33265 -4.82822,-7.20129 -16.6137,2.13227 -18.49844,2.40042 -18.49844,2.40042 -2e-5,0 -32.7047,4.98329 -33.47758,5.06115 -0.002,0 -0.026,3.4e-4 -0.0292,0 -0.31656,-0.0493 -3.55594,-1.0501 -4.15924,-2.28475 -0.018,-0.0405 -0.0456,-0.1036 -0.0582,-0.14452 -0.014,-0.0493 -0.0244,-0.12356 -0.0292,-0.17346 -0.004,-0.0583 -0.01,-0.14332 0,-0.20244 0.135,-0.65065 1.14378,-1.3542 3.72296,-1.99553 8.57494,-2.13135 38.86982,-8.25103 43.42486,-6.6518 0.58728,0.20602 1.01598,0.15948 1.27976,-0.0579 1.70804,-1.53683 -3.97444,-11.33837 -17.91676,-12.72518 -16.07762,-1.5983 -25.97346,3.99107 -25.97346,3.99107 0,0 -10.46152,-3.74352 -0.8144,-6.94101 9.64622,-3.19656 24.9264,1.07008 24.9264,1.07008 -2e-5,0 17.13982,-5.06995 2.93764,-7.20131 -14.20216,-2.13227 -18.68044,1.91712 -25.18814,2.14016 -2.59774,-3.22433 22.29682,-3.98554 23.8502,-6.6518 -2.6256,-4.79763 -18.02796,0 -27.04964,0 -3.83744,-1.61865 -4.0913,-4.25229 0.26178,-5.87094 9.20036,-0.35538 17.84926,0.18184 27.04962,-0.17346 -0.26804,-4.88462 0.006,-10.67481 -0.26176,-15.55943 -11.66962,-2.12026 -25.35546,1.5527 -31.90694,1.24359 1.75258,-5.32977 26.94934,-6.70547 29.75462,-8.15568 5.78918,-7.19532 -24.1669,-0.11118 -24.89732,0 -5.31732,-0.78111 -4.99528,-4.12297 -1.6288,-6.13123 7.77074,-0.88844 25.19724,1.13232 23.87932,-4.10676 -1.00984,-4.90933 -12.08196,-2.28082 -16.637,-1.21467 -4.55502,1.06521 -11.25612,0.26028 -11.25612,0.26028 -2.91696,-3.90502 26.26968,-2.30894 26.00256,-5.321434 -0.38064,-3.458748 -18.50128,-1.076328 -24.66464,-0.809796 -4.7404,-3.252196 22.28632,-5.41451 23.55936,-5.842004 0.006,-0.004 0.0256,-0.02594 0.0292,-0.02894 1.0099,-8.85747 -18.76046,0 -22.51226,0 -0.64484,0 -1.13294,-0.16008 -1.48336,-0.43382 -0.0782,-0.06328 -0.167,-0.1577 -0.2327,-0.231362 -1.28798,-1.494138 -0.1454,-4.916558 -0.1454,-4.916558 0,0 7.04528,-3.147902 7.47498,-3.904304 0.002,-0.006 0.027,-0.02316 0.0292,-0.02894 8.6e-4,-0.002 -6.2e-4,-0.02616 0,-0.02894 -8e-5,-0.002 3.2e-4,-0.02654 0,-0.02894 -0.002,-0.004 -0.0262,-0.02456 -0.0292,-0.02894 -0.016,-0.02236 -0.0552,-0.06068 -0.0874,-0.08682 -0.82702,-0.633246 -5.673,-2.231738 -6.31154,-2.284752 -0.004,-2.2e-4 -0.025,0 -0.0292,0 -0.004,-0.0015 -0.0252,-0.02674 -0.029,-0.02894 -0.008,-0.006 -0.0222,-0.02036 -0.0292,-0.02894 -0.004,-0.004 -0.0258,-0.02336 -0.0292,-0.02894 -0.365,-0.744864 0.0874,-6.044462 0.0874,-6.044462 0,0 5.58254,-4.159658 5.93346,-5.81308 0.002,-0.014 -0.002,-0.04452 0,-0.05788 0.002,-0.014 -6.8e-4,-0.04512 0,-0.05788 3e-4,-0.012 5e-4,-0.0455 0,-0.05788 -8.8e-4,-0.012 0.002,-0.0461 0,-0.05788 -9.2e-4,-0.006 9.2e-4,-0.02336 0,-0.02894 -0.004,-0.016 -0.0228,-0.04232 -0.0292,-0.05788 -0.002,-0.006 0.002,-0.02376 0,-0.02894 -0.002,-0.004 -0.0264,-0.02396 -0.0292,-0.02894 -0.006,-0.01 -0.0226,-0.02 -0.0292,-0.02894 -0.01,-0.014 -0.018,-0.0455 -0.029,-0.05788 -0.004,-0.004 -0.0246,-0.02496 -0.0292,-0.02894 -0.0224,-0.018 -0.0604,-0.04152 -0.0874,-0.05788 -0.012,-0.006 -0.0464,-0.02296 -0.0582,-0.02894 -1.40986,-0.673126 -7.2423,1.330364 -7.2423,1.330364 -2e-5,-1.776342 0,-3.545096 0,-5.321456 -2e-5,0 5.1065,-0.551948 5.6426,-2.949914 0.0314,-0.14052 0.016,-0.27865 0,-0.404898 -0.008,-0.0501 -0.014,-0.12556 -0.0292,-0.17346 -0.0332,-0.103 -0.0834,-0.224932 -0.1456,-0.318128 -0.01,-0.014 -0.0476,-0.04392 -0.0582,-0.05788 -1.1684,-1.499748 -5.93348,-1.706338 -5.93348,-1.706338 -0.89348,-9.325562 -1.78234,-18.640904 -2.67586,-27.966486 z m -4.77004,91.332092 0,3.67296 c 2e-5,0 -6.00934,-0.30606 -7.12598,-1.24362 -0.006,-0.004 -0.0244,-0.0244 -0.0292,-0.0289 -0.004,-0.004 -0.0246,-0.0242 -0.0292,-0.0289 -0.004,-0.004 -0.025,-0.0242 -0.0292,-0.0289 -0.004,-0.004 -0.0254,-0.0242 -0.0292,-0.0289 -0.01,-0.014 -0.0216,-0.0431 -0.0292,-0.0579 -0.002,-0.004 0.002,-0.024 0,-0.0289 -0.002,-0.004 -0.0276,-0.024 -0.029,-0.0289 -9.2e-4,-0.004 8.8e-4,-0.024 0,-0.0289 -9.2e-4,-0.01 1e-4,-0.0475 0,-0.0579 2.2e-4,-0.006 -5e-4,-0.0238 0,-0.0289 8e-4,-0.006 -9.2e-4,-0.0236 0,-0.0289 0.006,-0.0214 0.018,-0.0649 0.029,-0.0868 0.002,-0.006 0.026,-0.0234 0.0292,-0.0289 0.014,-0.0224 0.0392,-0.0641 0.0582,-0.0868 0.006,-0.006 0.0236,-0.0232 0.0292,-0.0289 0.012,-0.012 0.0454,-0.0461 0.0582,-0.0579 0.0402,-0.0353 0.0928,-0.079 0.1454,-0.11578 2.01612,-1.40354 6.04154,-1.37044 6.83514,-1.59065 0.006,-0.002 0.023,0.002 0.0292,0 0.006,-0.002 0.024,-0.0267 0.029,-0.0289 0.004,-0.002 0.0254,0.002 0.0292,0 0.004,-0.002 0.0262,-0.0265 0.0292,-0.0289 z m 8.5221,4.88763 c 0.20764,0 11.97048,0.1006 13.00128,1.61957 0.008,0.012 0.0226,0.0447 0.0292,0.0579 0.008,0.02 0.0242,0.0665 0.0292,0.0868 0.002,0.014 -7.2e-4,0.0439 0,0.0579 -1.4e-4,0.021 0.004,0.0655 0,0.0868 -0.006,0.0216 -0.02,0.0647 -0.0292,0.0868 -0.89816,1.8972 -12.79768,3.0367 -12.79768,3.03668 l -0.23268,-5.03222 z m -0.66898,7.25914 c 0.004,0.002 0.0248,-0.002 0.029,0 0.004,0.002 0.0232,-0.002 0.0292,0 0.69832,0.18344 5.57008,0.34048 6.16616,1.15682 0.006,0.008 0.0246,0.0212 0.0292,0.0289 0.002,0.004 -0.002,0.025 0,0.0289 0.004,0.008 0.0264,0.0208 0.0292,0.0289 9.2e-4,0.004 -8.6e-4,0.025 0,0.0289 4.4e-4,0.004 -2.6e-4,0.0248 0,0.0289 2e-5,0.004 1.6e-4,0.0247 0,0.0289 -4e-4,0.004 5.8e-4,0.0246 0,0.0289 -8e-4,0.004 9.2e-4,0.0246 0,0.0289 -0.002,0.004 -0.0276,0.0244 -0.0292,0.0289 -0.002,0.004 0.002,0.0244 0,0.0289 -0.008,0.014 -0.02,0.0439 -0.0292,0.0579 -0.004,0.004 -0.0256,0.0242 -0.0292,0.0289 -0.004,0.004 0.004,0.0242 0,0.0289 -1.00986,1.22719 -5.50558,1.56175 -5.72986,1.56175 -0.002,-4e-4 -0.0274,7.4e-4 -0.0292,0 -0.002,-9.2e-4 0.002,-0.0275 0,-0.0289 -0.004,-0.006 -0.0254,-0.0226 -0.029,-0.0289 -0.20552,-0.4149 -0.40722,-3.06562 -0.40722,-3.06562 z m -35.8626,9.65956 c 3.84048,-0.1984 11.4619,0.70093 25.76988,4.62735 0,0.30278 0.28972,3.99175 0.1744,4.59841 -9.2e-4,0.004 -0.0278,0.0246 -0.0292,0.0289 -9.2e-4,0.004 9.4e-4,0.0261 0,0.0289 -0.002,0.002 -0.0258,0.0285 -0.0292,0.0289 -0.2243,-0.11198 -26.03094,-7.48587 -28.38758,-7.37481 -0.0644,0.002 -0.1424,0.006 -0.2036,0 -0.052,-0.006 -0.1256,-0.018 -0.1744,-0.0289 -0.0642,-0.016 -0.1472,-0.0611 -0.20358,-0.0868 -0.0208,-0.01 -0.0678,-0.018 -0.0874,-0.0289 -0.006,-0.004 -0.0228,-0.025 -0.0292,-0.0289 -0.0784,-0.0529 -0.1562,-0.13314 -0.20358,-0.20244 -0.004,-0.006 -0.0258,-0.0234 -0.0292,-0.0289 -0.006,-0.012 -0.0238,-0.0465 -0.029,-0.0579 -0.002,-0.006 0.002,-0.023 0,-0.0289 -0.004,-0.012 -0.0264,-0.0459 -0.0292,-0.0579 -9.2e-4,-0.006 9.2e-4,-0.0228 0,-0.0289 -9.2e-4,-0.012 3e-4,-0.0453 0,-0.0579 2.4e-4,-0.012 -9.2e-4,-0.0451 0,-0.0579 0.004,-0.0321 0.018,-0.0828 0.0292,-0.11578 0.0318,-0.079 0.097,-0.18084 0.1744,-0.26028 0.39462,-0.38378 1.38286,-0.76932 3.28668,-0.86764 z m 13.37938,10.90317 c 4.11356,-0.14672 13.96946,2.21102 14.51376,2.08232 -2e-5,0.78143 0.4361,4.47501 -0.0582,5.23466 -0.004,0.006 -0.0242,0.023 -0.0292,0.0289 -0.004,0.006 -0.024,0.024 -0.0292,0.0289 -0.006,0.004 -0.0238,0.0251 -0.0292,0.0289 -0.01,0.006 -0.0466,0.0244 -0.0582,0.0289 -0.006,0.002 -0.0228,-9.2e-4 -0.0292,0 -0.012,9.2e-4 -0.045,9.2e-4 -0.0582,0 -0.006,-9.2e-4 -0.022,0.002 -0.0292,0 -0.83768,-0.20822 -15.38222,-4.80162 -15.93894,-6.68072 -0.008,-0.0309 -6.6e-4,-0.0862 0,-0.11578 0.006,-0.0655 0.038,-0.14552 0.0874,-0.20244 0.006,-0.006 0.0224,-0.023 0.0292,-0.0289 0.006,-0.006 0.022,-0.023 0.0292,-0.0289 0.27922,-0.22006 0.85536,-0.34943 1.5997,-0.37597 z m 40.48724,10.1223 c 3.92828,-0.0764 6.70174,0.25803 5.67168,1.44604 -2.80524,3.23545 -22.19234,5.89987 -22.19234,5.89987 l -0.34902,-5.89987 c 0.41636,-0.0609 10.26678,-1.31771 16.86968,-1.44604 z m -55.4954,18.39368 c 3.29666,-0.17446 10.9736,1.62572 28.06764,8.82086 l 0.1164,4.25138 c 2e-5,0 -28.94834,-8.72995 -29.9582,-10.18015 -0.49704,-0.71379 -1.421,-2.72293 1.77424,-2.89209 z m 56.717,6.33367 c 0.88072,-0.0445 1.50064,0.0441 1.71604,0.26028 0.006,0.006 0.0244,0.0228 0.029,0.0289 0.012,0.02 0.0222,0.0657 0.0292,0.0868 0.004,0.0218 0.0296,0.0631 0.0292,0.0868 -0.012,0.12196 -0.104,0.28623 -0.26178,0.46274 -2.69356,3.01331 -17.16054,6.01554 -17.16052,6.01554 0,0 -2e-5,-3.79234 0,-3.90432 0.002,2e-4 0.026,-4e-5 0.0292,0 0.65948,-0.0224 11.279,-2.81876 15.5899,-3.0367 z m -63.46488,0.52057 c 4.32174,-0.22785 14.0802,2.05135 35.94986,12.3492 -2e-5,0.1068 0.1948,3.65832 0.1162,3.9911 -0.002,-4.2e-4 -0.0262,8.2e-4 -0.0292,0 -1.2966,-0.41556 -39.35288,-13.7085 -39.35288,-13.7085 -0.0406,-0.14572 -0.61308,-2.42465 3.31578,-2.6318 z m 72.45232,16.62952 c 1.10592,-0.0462 1.83146,0.049 2.00694,0.2892 0.016,0.0278 0.027,0.0836 0.0292,0.1158 -0.004,0.1156 -0.1006,0.26294 -0.29088,0.4338 -3.45098,3.09904 -25.45336,6.85354 -26.23524,6.91208 -0.004,0 -0.0258,4.4e-4 -0.0292,0 -0.002,-9.2e-4 -0.026,0.002 -0.029,0 -0.002,-0.002 -0.0264,-0.0262 -0.0292,-0.029 -0.008,-0.01 -0.023,-0.0438 -0.0292,-0.0578 -0.002,-0.006 0.002,-0.0236 0,-0.029 -0.004,-0.012 -0.0262,-0.0448 -0.0292,-0.0578 -0.1398,-0.7183 0.31564,-3.23382 0.34902,-3.58618 3.2e-4,-0.006 0,-0.0254 0,-0.029 9.2e-4,9.2e-4 0.027,-9.2e-4 0.0292,0 0.004,6.8e-4 0.0242,0.0286 0.029,0.029 0.006,2.8e-4 0.0226,-8e-5 0.0292,0 1.4083,-0.0234 18.27036,-3.74456 24.19926,-3.99108 z m -64.68646,9.68848 c 6.55008,-0.33646 26.39704,8.71272 27.36958,8.9944 0.002,5e-4 0.0272,-6e-5 0.0292,0 -0.102,0.40426 -0.1188,3.67136 -0.20358,4.19352 -0.002,0.014 0.002,0.0502 0,0.0578 -8e-4,0.002 -0.0284,-9e-4 -0.0292,0 -0.53504,-0.28494 -27.73594,-11.5102 -28.94018,-10.61396 -0.75036,-1.76808 0.0276,-2.54208 1.7742,-2.6318 z m 58.52032,2.37152 c 1.36294,-0.0596 2.36054,6.4e-4 2.67586,0.1734 0.0382,0.024 0.0732,0.0576 0.0874,0.0868 0.002,0.004 -9.2e-4,0.0238 0,0.029 2.4e-4,0.006 4.8e-4,0.0236 0,0.029 -0.002,0.012 0.006,0.0462 0,0.0578 -0.004,0.006 -0.0248,0.0228 -0.0292,0.029 -0.02,0.0254 -0.0556,0.0588 -0.0874,0.0868 -2.0197,1.78522 -20.76716,5.46604 -20.76714,5.46604 0,0 -0.0874,-3.45362 -0.0874,-3.78862 0.53248,-0.1132 12.63466,-1.92458 18.20764,-2.16906 z m -1.51246,11.94432 c 1.31906,-0.0436 2.25426,0.0312 2.4723,0.26028 0.004,0.004 0.0258,0.0242 0.029,0.029 0.006,0.01 -0.002,0.0472 0,0.0578 9e-4,0.006 0.0288,0.0234 0.0292,0.029 -2.8e-4,0.006 -0.0282,0.0232 -0.0292,0.029 -0.002,0.012 0.006,0.0452 0,0.0578 -0.004,0.006 -0.0252,0.0224 -0.029,0.029 -0.016,0.0262 -0.0348,0.0596 -0.0582,0.0868 -0.018,0.0206 -0.064,0.0658 -0.0874,0.0868 -2.02348,1.7366 -17.91676,5.06114 -17.91676,5.06114 0,0 -0.43628,-3.79232 -0.43628,-3.9043 0.44088,0.01 11.06656,-1.6583 16.02616,-1.82202 z m -67.07148,0.95438 c 3.8347,-0.24108 13.33658,1.3301 36.79332,9.80418 l 0.78532,4.56948 c 0,2e-5 -39.0549,-12.5357 -40.16726,-12.9276 0.002,0 -8.4e-4,-0.0258 0,-0.029 9.2e-4,-0.0242 -0.006,-0.0828 0,-0.1448 0.014,-0.1148 0.0724,-0.2955 0.20358,-0.46276 0.27524,-0.33548 0.90404,-0.71664 2.38504,-0.80976 z m 51.4525,9.91986 c 0.47064,0.1 7.01934,0.31614 8.23122,1.33038 0.006,0.004 0.0238,0.0242 0.0292,0.029 0.004,0.004 0.0242,0.024 0.0292,0.029 0.004,0.004 0.025,0.024 0.0292,0.029 0.012,0.016 0.02,0.0426 0.0292,0.0578 0.002,0.006 0.0264,0.0238 0.029,0.029 0.01,0.021 0.0238,0.0652 0.0292,0.0868 9.2e-4,0.006 -8.2e-4,0.0234 0,0.029 5.4e-4,0.006 -2.4e-4,0.0234 0,0.029 -4e-5,0.012 9.2e-4,0.0466 0,0.0578 -9e-4,0.006 9.2e-4,0.0232 0,0.029 -0.002,0.012 -0.025,0.046 -0.0292,0.0578 -0.002,0.006 0.002,0.023 0,0.029 -0.006,0.012 -0.0218,0.0458 -0.029,0.0578 -1.00986,1.5622 -7.85312,2.14016 -7.85312,2.14016 0,0 -0.33622,-3.06122 -0.49446,-4.02002 z m 15.85166,8.90764 c 1.52494,-0.0364 2.61938,0.1372 2.85038,0.5784 0.13,0.29904 -0.1202,0.74078 -0.84346,1.33036 -5.6105,4.57458 -17.8295,5.46604 -17.8295,5.46604 0,0 0,-4.92116 0,-5.03222 0.002,2.4e-4 0.0234,3.8e-4 0.0292,0 0.69412,-0.082 10.7307,-2.22192 15.7935,-2.34258 z m 15.56084,4.68516 c 1.93678,-0.073 2.77132,0.24986 3.0249,0.6941 0.0204,0.0394 0.0464,0.1032 0.0582,0.1448 0.018,0.0752 0.0354,0.18 0.0292,0.26032 -0.0624,0.57318 -0.68666,1.26 -1.16344,1.70632 -1.90802,1.78522 -32.31412,11.3659 -32.31414,11.3659 0,0 -0.22894,-6.35496 -0.1164,-6.9121 17.77744,-5.35702 26.47222,-7.1081 30.48176,-7.25914 z m -19.66192,17.9888 c 1.93312,-0.0716 3.44466,0.042 3.89748,0.49162 0.0278,0.0298 0.0688,0.0828 0.0874,0.1158 0.01,0.0202 0.0224,0.0654 0.029,0.0868 0.006,0.0216 -0.002,0.064 0,0.0868 9.4e-4,0.0386 0.01,0.1026 0,0.1448 -0.022,0.0852 -0.0806,0.19 -0.1456,0.28922 -2.6014,2.53856 -15.2409,2.921 -15.24088,2.921 l 0,-3.15236 c 2.37348,-0.0796 7.6569,-0.84556 11.37248,-0.9833 z m 12.65226,5.17682 c 0.60092,-0.014 0.96738,0.083 1.018,0.2603 0.002,0.014 0.002,0.043 0,0.0578 -0.0304,0.1476 -0.20694,0.37124 -0.58172,0.63624 -5.04926,3.56954 -24.02472,7.23024 -24.02472,7.23024 0,0 0.23512,-2.49458 0.34902,-3.09454 0.5278,-0.008 18.69918,-4.97954 23.23942,-5.09008 z m 10.64534,3.96216 c 2.23598,-0.021 3.9426,0.30708 4.91548,1.01224 0.002,0 0.0274,-4.8e-4 0.0292,0 7.2e-4,0.002 -5.4e-4,0.0258 0,0.029 3.4e-4,0.004 -1.6e-4,0.025 0,0.029 -4.6e-4,0.01 9.2e-4,0.0464 0,0.0578 -0.0952,0.69158 -1.51668,3.94502 -6.5152,5.35036 -6.23434,-0.5537 -32.69292,7.22406 -33.2158,7.3459 -0.002,-0.002 -0.0278,0.002 -0.029,0 -0.002,-0.01 9.2e-4,-0.0434 0,-0.0578 -0.014,-0.49822 0.34904,-3.1813 0.34902,-3.1813 9.1205,-5.42342 25.69464,-10.50278 34.46648,-10.58502 z m -67.74044,15.27022 c 0.0584,-9.2e-4 0.1124,-2e-4 0.1744,0 11.44532,1.22718 15.71972,5.48732 16.92782,7.20128 -2.2821,3.98202 -20.36976,-4.94838 -18.46938,-6.85422 0.21758,-0.1932 0.6654,-0.33254 1.36704,-0.34706 z m 65.5881,0.75196 c 0.45456,-0.018 0.8697,0.0752 1.16344,0.26028 0.12,0.0798 0.2384,0.1944 0.31996,0.31812 0.1102,0.1776 0.1836,0.41798 0.2036,0.6941 -1.19562,1.83702 -7.37908,1.0351 -7.76588,0.9833 0.3115,-0.1104 3.88182,-2.17256 6.07888,-2.2558 z m -24.51918,12.37812 c 0.84862,-0.0348 1.55366,0.0504 1.94874,0.28918 0.0478,0.0308 0.1076,0.0794 0.1454,0.1158 0.012,0.012 0.0474,0.0446 0.0582,0.0578 0.016,0.02 0.0454,0.0652 0.0582,0.0868 0.012,0.022 0.02,0.0632 0.0292,0.0868 0.072,0.21614 0.044,0.51458 -0.1454,0.86762 -1.7954,3.34742 -9.65644,2.11122 -9.65644,2.11122 l 0,-2.34258 c 0.002,6.6e-4 0.0272,-5.4e-4 0.029,0 0.44278,0.0374 4.7752,-1.15976 7.53318,-1.2725 z m -46.30434,8.82086 c 2.41852,-0.1214 4.53244,1.45616 6.74786,2.71854 4.93668,-1.0041 15.06638,0.78088 15.06638,0.78088 0,0 0,4.1188 0,4.4538 0,0.004 -0.0228,0.0258 -0.0292,0.029 -0.004,0.002 -0.023,-0.002 -0.029,0 -0.92204,0.1596 -12.7926,-0.3561 -15.4445,-2.02444 -2.16244,0 -8.28404,-3.21246 -8.75476,-4.85872 -0.004,-0.014 -0.0262,-0.0442 -0.0292,-0.0578 -0.004,-0.0204 0.002,-0.0668 0,-0.0868 -6.6e-4,-0.014 -2.6e-4,-0.045 0,-0.058 6.8e-4,-0.012 -0.002,-0.0456 0,-0.0578 9.2e-4,-0.006 -9.4e-4,-0.0228 0,-0.029 0.002,-0.012 0.0252,-0.0462 0.0292,-0.0578 0.002,-0.006 -0.002,-0.0232 0,-0.029 0.84598,-0.44826 1.67028,-0.68424 2.4432,-0.72302 z m 51.91786,2.198 c 1.85692,-0.0994 2.64418,0.47132 1.19252,2.5161 -4.03942,5.68976 -14.48466,3.35482 -14.48466,3.35482 l -0.43628,-3.52836 c 3.68428,0.143 10.41826,-2.16522 13.72842,-2.34256 z m -39.03292,11.53942 c 4.22364,-0.1958 8.81294,1.47496 8.81294,1.47496 0.1082,0.21432 2.26996,4.45168 0.34904,5.87094 -0.0714,0.0512 -0.1498,0.1014 -0.23268,0.1446 -2.35666,1.22716 -13.62024,-0.95902 -14.28104,-5.46604 1.3254,-1.39112 3.289,-1.92888 5.35174,-2.02446 z m -43.5412,2.19796 c 3.86272,-0.23048 8.17736,2.1356 8.66752,2.37152 0.006,0.002 0.0254,-9.2e-4 0.029,0 0,0.1334 -0.1454,4.28028 -0.1454,4.28028 0,0 -7.64652,-2.11954 -10.06366,-6.3915 0.48468,-0.1314 1.00232,-0.22986 1.51248,-0.2603 z m 73.55758,0.57842 c 4.30812,-0.0272 9.51286,0.97916 10.26722,2.42936 0.1426,0.2966 0.1002,0.62358 -0.1744,0.9544 -2.13234,2.56538 -14.25196,0.23136 -14.25196,0.23136 l 0,-3.12344 c 1.07828,-0.31364 2.56364,-0.4816 4.15924,-0.49168 z"
     id="path575"
     style="fill:#007934" />
  <metadata
     id="metadata3792">
    <rdf:RDF>
      <cc:Work
         rdf:about="">
        <dc:title></dc:title>
      </cc:Work>
    </rdf:RDF>
  </metadata>
</svg>
