<?xml version="1.0" encoding="UTF-8"?><svg xmlns:xlink="http://www.w3.org/1999/xlink" xmlns="http://www.w3.org/2000/svg" version="1.1" width="726" height="885" viewBox="-17.582 -4.664 71.571 87.246"><title>Flag of Nepal</title><desc>Coding according to the official construction in &quot;Constitution of the Kingdom of Nepal, Article 5, Shedule 1&quot;, adopted in November 1990</desc><use xlink:href="#a" stroke="#003893" stroke-width="5.165"/><path id="a" d="M -15,37.5735931288 h 60 L -15,0 v 80 h 60 L -15,20 z" fill="#DC143C"/><g fill="#fff"><path d="M -11.9502769431,23.4834957055 A 12.8400974233,12.8400974233 0 0,0 11.9502769431,23.4834957055 A 11.9502769431 11.9502769431 0 0,1 -11.9502769431,23.4834957055"/><g transform="translate(0 29.045) scale(5.56106)"><circle r="1"/><g id="d"><g id="c"><path id="b" d="M 0.195090322016,-0.980785280403 L 0,-1.388784109750 L -0.195090322016,-0.980785280403" transform="rotate(11.25)"/><use xlink:href="#b" transform="rotate(22.5)"/><use xlink:href="#b" transform="rotate(45)"/></g><use xlink:href="#c" transform="rotate(67.5)"/></g><use xlink:href="#d" transform="scale(-1 1)"/></g><g transform="matrix(8.1434 0 0 8.1434 0 58.787)"><circle r="1"/><g id="g"><g id="f"><path id="e" d="M 0.258819045103,0.965925826289 L 0,1.576749285537 L -0.258819045103,0.965925826289"/><use xlink:href="#e" transform="rotate(180)"/></g><use xlink:href="#f" transform="rotate(90)"/></g><use xlink:href="#g" transform="rotate(30)"/><use xlink:href="#g" transform="rotate(60)"/></g></g></svg>