<?xml version="1.0" encoding="utf-8"?>
<!DOCTYPE svg PUBLIC "-//W3C//DTD SVG 20010904//EN" "http://www.w3.org/TR/2001/REC-SVG-20010904/DTD/svg10.dtd">
<svg version="1.0" xmlns="http://www.w3.org/2000/svg" width="432px" height="216px" viewBox="0 0 432 216" preserveAspectRatio="xMidYMid meet">
 <g fill="#009639">
  <path d="M0.10 214.55 c0.15 -1.30 5.50 -5.45 47.25 -36.75 l47.05 -35.30 168.80 0 168.80 0 0 36.75 0 36.75 -216.05 0 -216 0 0.15 -1.45z"/>
 </g>
 <g fill="#000000">
  <path d="M48.15 37.85 c-37.90 -28.35 -47.60 -35.85 -47.60 -36.70 l-0.05 -1.15 215.75 0 215.75 0 0 36.75 0 36.75 -168.10 0 -168.15 0 -47.60 -35.65z"/>
 </g>
 <g fill="#ffffff">
  <path d="M95 143.20 c0 -0.85 5.25 -5 23 -18.25 12.60 -9.45 22.95 -17.30 22.95 -17.45 0 -0.15 -10.10 -7.80 -22.45 -17 -20.65 -15.40 -22.45 -16.85 -22.50 -18.25 0 -1.10 0.15 -1.30 0.60 -0.85 0.45 0.45 38.45 0.60 168 0.60 l167.40 0 0 36 0 36 -168.50 0.10 -168.50 0.15 0 -1.05z"/>
 </g>
 <g fill="#ed2e38" stroke="#ff0000" stroke-width="0.5">
  <path d="M0 108 c0 -106.10 0 -108 0.95 -108 0.55 0 1.05 0.20 1.15 0.40 0.10 0.20 32.05 24.30 71 53.50 39 29.20 70.90 53.30 70.90 53.60 0 0.30 -31.90 24.40 -70.85 53.55 -39 29.20 -71.25 53.50 -71.75 54 -0.45 0.55 -0.95 0.95 -1.10 0.95 -0.15 0 -0.30 -48.60 -0.30 -108z"/>
 </g>
</svg>