<svg width="1200" height="600" viewBox="0 0 1400 700" xmlns:xlink="http://www.w3.org/1999/xlink" xmlns="http://www.w3.org/2000/svg"><path fill="#060" d="M0 0H1400V700H0z"/><path fill="#fff" d="M0 0H1400V500H0z"/><path fill="#c00" d="M0 0H1400V200H0z"/><g transform="translate(0,-0.33413012)" fill="#f8c300"><path d="m 672,340.7 a 12.5,12.5 0 0 1 23.3,5.9 v 50 h 9.4 v -50 a 12.5,12.5 0 0 1 23.3,-5.9 29.5,29.5 0 1 0 -56,0"/><path d="m 678.7,327.65 a 20,20 0 0 1 21.3,9.55 20,20 0 0 1 21.3,-9.55 21.5,21.5 0 0 0 -42.6,0" fill="#fff"/><path id="a" d="m 695.3,376.627 a 38,38 0 0 1 -63.845,24.316 39.5,39.5 0 0 1 -59.734,17.467 c 3.6496,36.426 58.252,28.989 62.32,-6.4288 17.154,30.115 54.873,21.49 65.91,-15.4 z"/><use xlink:href="#a" transform="matrix(-1,0,0,1,1400,0)" width="100%" height="100%"/><path id="b" d="m 658.84,441.31 c -7.6181,16.446 -22.845,19.271 -36.164,5.9953 0,0 5.3539,-3.7831 11.086,-4.826 -1.0748,-4.5744 1.1291,-10.902 4.2354,-14.324 3.2575,2.2264 7.8036,6.6886 8.9598,11.874 8.0291,-1.0394 11.883,1.2815 11.883,1.2815 z"/><use xlink:href="#b" transform="rotate(9.37,700,804)" width="100%" height="100%"/><use xlink:href="#b" transform="rotate(18.74,700,804)" width="100%" height="100%"/><path d="m 603,478 a 340,340 0 0 1 194,0" fill="none" stroke-width="16" stroke="#f8c300"/><g transform="translate(700,380.00074)"><g transform="translate(0,-140)"><path id="c" transform="matrix(4.8669e-5,0,0,4.8669e-5,0,0)" d="M-488533 -158734L488533 -158734 -301930 415571 0 -513674 301930 415571z"/></g><g id="d"><use xlink:href="#c" transform="translate(-70,-121.24356)" width="100%" height="100%"/><use xlink:href="#c" transform="translate(-121.24356,-70)" width="100%" height="100%"/><use xlink:href="#c" transform="translate(-140)" width="100%" height="100%"/></g><use xlink:href="#d" transform="scale(-1,1)" width="100%" height="100%"/></g></g></svg>