<?xml version="1.0" encoding="UTF-8" standalone="no"?>

<svg width="560" height="280" viewBox="0 0 560 280" xml:space="preserve" xmlns:xlink="http://www.w3.org/1999/xlink" xmlns="http://www.w3.org/2000/svg" xmlns:svg="http://www.w3.org/2000/svg">

<path fill="#006600" d="M 0,0 H 560 V 280 H 0 Z"/>

<path fill="#ffffff" d="M 0,0 H 560 V 200 H 0 Z"/>

<path fill="#cc0000" d="M 0,0 H 560 V 80 H 0 Z"/>

<g transform="matrix(0.85714285,0,0,0.85714285,-2.6190477e-6,0)">

<g transform="matrix(0.940774,0,0,0.940774,-9.1876583,-272.00611)">

<path d="m 344.52618,457.70044 a 5.5677183,5.5677183 0 0 1 10.37823,2.62796 v 22.27086 h 4.18692 V 460.3284 a 5.5677183,5.5677183 0 0 1 10.37823,-2.62796 13.139815,13.139815 0 1 0 -24.94338,0" fill="#f8c300"/>

<path d="m 347.51048,451.88774 a 8.9083492,8.9083492 0 0 1 9.48739,4.25373 8.9083492,8.9083492 0 0 1 9.48739,-4.25373 9.576475,9.576475 0 0 0 -18.97478,0" fill="#ffffff"/>

<path id="a" d="m 354.90441,473.70295 a 16.925863,16.925863 0 0 1 -28.43768,10.83077 17.593989,17.593989 0 0 1 -26.60656,7.7801 c 1.62559,16.22478 25.94645,12.91221 27.75841,-2.86349 7.64069,13.41374 24.44139,9.57201 29.35746,-6.85944 z" fill="#f8c300"/>

<use xlink:href="#a" transform="matrix(-1,0,0,1,713.99576,0)" width="100%" height="100%" fill="#f8c300"/>

<path id="b" d="m 338.66449,502.51388 c -3.39323,7.32534 -10.17556,8.58364 -16.10807,2.67042 0,0 2.38471,-1.68507 4.93789,-2.14959 -0.47873,-2.03752 0.50293,-4.85595 1.88652,-6.38016 1.45095,0.99168 3.47586,2.97922 3.99085,5.28889 3.57631,-0.46297 5.2929,0.5708 5.2929,0.5708 z" fill="#f8c300"/>

<use xlink:href="#b" transform="rotate(9.37,356.9979,664.0623)" width="100%" height="100%" fill="#f8c300"/>

<use xlink:href="#b" transform="rotate(18.74,356.9979,664.0623)" width="100%" height="100%" fill="#f8c300"/>

<path d="m 313.79238,518.85625 a 151.44194,151.44194 0 0 1 86.41099,0" fill="none" stroke-width="7.12668" stroke="#f8c300"/>

</g>

<g transform="translate(0,-583.33334)">

<path fill="#f8c300" transform="matrix(0.6548997,0,0,0.6548997,-0.78318333,582.97212)" d="M591.13867 255.58301 594.74805 266.69238 606.42969 266.69238 596.97949 273.55859 600.58887 284.66895 591.13867 277.80176 581.68848 284.66895 585.29785 273.55859 575.84766 266.69238 587.5293 266.69238z"/>

<path fill="#f8c300" transform="matrix(0.6548997,0,0,0.6548997,-0.78318333,582.97212)" d="M578.92773 210.01367 582.53711 221.12305 594.21875 221.12305 584.76855 227.98926 588.37793 239.09863 578.92773 232.23193 569.47754 239.09863 573.08691 227.98926 563.63672 221.12305 575.31836 221.12305z"/>

<path fill="#f8c300" transform="matrix(0.6548997,0,0,0.6548997,-0.78318333,582.97212)" d="M545.56934 176.65479 549.17871 187.76416 560.86035 187.76416 551.40918 194.63037 555.01855 205.74023 545.56934 198.87305 536.11914 205.74023 539.72852 194.63037 530.27832 187.76416 541.95996 187.76416z"/>

<path fill="#f8c300" transform="matrix(0.6548997,0,0,0.6548997,-0.78318333,582.97212)" d="M500 164.44434 503.60938 175.55371 515.29102 175.55371 505.84082 182.42041 509.4502 193.52979 500 186.66309 490.5498 193.52979 494.15918 182.42041 484.70898 175.55371 496.39062 175.55371z"/>

<path fill="#f8c300" transform="matrix(0.6548997,0,0,0.6548997,-0.78318333,582.97212)" d="M454.43066 176.65479 458.04004 187.76416 469.72119 187.76416 460.27148 194.63037 463.88037 205.74023 454.43066 198.87305 444.98047 205.74023 448.58984 194.63037 439.13965 187.76416 450.82129 187.76416z"/>

<path fill="#f8c300" transform="matrix(0.6548997,0,0,0.6548997,-0.78318333,582.97212)" d="M421.07129 210.01367 424.68115 221.12354 436.3623 221.12354 426.91211 227.98975 430.52148 239.09912 421.07129 232.23242 411.62109 239.09912 415.23047 227.98975 405.78076 221.12354 417.46191 221.12354z"/>

<path fill="#f8c300" transform="matrix(0.6548997,0,0,0.6548997,-0.78318333,582.97212)" d="M408.86133 255.58301 412.4707 266.69238 424.15186 266.69238 414.70166 273.55859 418.31104 284.66895 408.86133 277.80176 399.41113 284.66895 403.02051 273.55859 393.57031 266.69238 405.25195 266.69238z"/>

</g>

</g>

</svg>