<svg xmlns="http://www.w3.org/2000/svg" xmlns:xlink="http://www.w3.org/1999/xlink" width="1200" height="600" viewBox="0 0 120 60" fill="#fedd00">
	<title>Flag of Tuvalu</title>
	<defs>
		<path id="a" d="m0-5.2573 3.0902 9.5106L-5-1.6246H5l-8.0902 5.8779z"/>
		<path id="b" d="m0 5.2573-3.0902-9.5106L5 1.6246H-5l8.0902-5.8779z"/>
		<clipPath id="f">
			<path d="m0 0h120v60H0z"/>
		</clipPath>
		<clipPath id="s">
			<path d="m0 0v15h62v16zm0 30v1h30V0h30z"/>
		</clipPath>
	</defs>
	<path fill="#012169" d="m0 0h120v60H0z"/>
	<g clip-path="url(#f)" fill="none" stroke="#c8102e" stroke-width="6">
		<path stroke="#fff" d="m0 0 60 30M0 30 60 0"/>
		<path stroke-width="4" clip-path="url(#s)" d="m0 0 60 30M0 30 60 0"/>
		<path stroke="#fff" stroke-width="10" d="m30 0v31M0 15h62"/>
		<path d="m30 0v31M0 15h62"/>
	</g>
	<path fill="#009cde" d="m60 0h60v60H0V30h60z"/>
	<use xlink:href="#a" x="65.5" y="54"/>
	<use xlink:href="#b" x="78" y="38.5"/>
	<use xlink:href="#b" x="78" y="51"/>
	<use xlink:href="#b" x="90.5" y="21.5"/>
	<use xlink:href="#b" x="90.5" y="47.5"/>
	<use xlink:href="#b" x="101" y="17.5"/>
	<use xlink:href="#a" x="101" y="38.5"/>
	<use xlink:href="#a" x="111.5" y="8"/>
	<use xlink:href="#a" x="111.5" y="32"/>
</svg>
