<?xml version="1.0" encoding="UTF-8"?>
<svg xmlns="http://www.w3.org/2000/svg" xmlns:xlink="http://www.w3.org/1999/xlink" width="900" height="475">
<clipPath id="c">
<path d="M0,0V475L420,280H900V195H420z" fill="#000"/>
</clipPath>
<rect width="900" height="475" fill="#009543"/>
<rect width="900" height="237.5" fill="#d21034"/>
<g clip-path="url(#c)">
<path d="M0,0 420,195H900V280H420L0,475" fill="#000" stroke="#fdce12" stroke-width="110"/>
<path d="M0,0 420,195H900M900,280H420L0,475" fill="none" stroke="#000" stroke-width="60"/>
</g>
<g fill="#fdce12">
<path d="m106.868,282.937v27.0634c23.5442,0,69.7503-18.0417,69.7503-76.1299,0-58.0883-49.2867-68.8699-64.0295-68.8699-14.7417,0-60.2883,10.5616-60.2883,58.0883s44.6667,51.9275,53.4675,51.9275c8.80086,0,41.8058-7.92164,38.0658-43.5667,0,10.1217-11.4417,31.465-35.4258,31.465-23.9833,0-38.945-17.8233-38.945-35.425,0-17.6034,14.5216-41.1467,39.825-41.1467,25.3033,0,43.7858,22.4425,43.7858,45.1067,0,22.6633-17.8216,51.4875-46.2058,51.4875z"/>
<g id="f">
<path d="m86.2402,247.704,1.4025,0.9075s11.1392-25.4134,41.0908-43.4833c-3.79583,2.06251-23.8458,12.0467-42.4933,42.5758z" stroke="#fdce12" stroke-width="0.833333"/>
<path d="m89.1278,243.331s-3.465-7.09585-0.412497-10.2308c3.05333-3.13583,1.65083,8.33331,1.65083,8.33331l1.32-1.8975s-2.06333-8.66419,0.247504-10.4792c2.31-1.815,1.155,8.33331,1.155,8.33331l1.4025-1.815s-1.485-8.41585,0.742504-9.98419c2.22833-1.5675,0.825833,7.92164,0.825833,7.92164l1.65-1.89834s-1.2375-8.0033,1.485-9.90082c2.72333-1.89833,0.33,7.59082,0.33,7.59082l1.815-1.98s-0.825-7.34419,1.48583-8.99419c2.31-1.65,0.33,6.93083,0.33,6.93083l1.65-1.73251s-0.495-6.84833,1.7325-8.41585c2.22833-1.56833,0.165,6.51834,0.165,6.51834l1.73333-1.65084s-0.4125-6.84833,2.3925-8.16833-0.495,6.43585-0.495,6.43585l1.8975-1.65s0.5775-8.00331,2.97084-8.74668c2.3925-0.7425-1.0725,7.09668-1.0725,7.09668l1.7325-1.40333s0.9075-6.84834,3.5475-7.67331c2.64083-0.825-1.65,6.27083-1.65,6.27083l1.7325-1.32s1.89833-6.84834,4.37333-7.59082c2.47583-0.7425-2.5575,6.43585-2.5575,6.43585l1.65-1.155s2.7225-6.18916,4.95083-6.60164c2.2275-0.4125-2.47583,5.11583-2.47583,5.11583l2.06333-1.2375s3.5475-6.43585,4.78584-4.45583c1.23749,1.98083-4.95084,4.86833-4.95084,4.86833l-2.06333,1.155s7.50916-3.5475,8.41668-1.7325c0.9075,1.815-10.3142,2.97083-10.3142,2.97083l-1.815,1.2375s7.50833-2.06333,6.60082-0.165c-0.90751,1.8975-8.33331,1.485-8.33331,1.485l-1.73333,1.2375s7.50833-1.815,6.51833-0.0825-8.3333,1.5675-8.3333,1.5675l-1.815,1.48584s7.34337-1.89834,6.27083,0.33c-1.07333,2.22749-9.40667,2.145-9.40667,2.145l-2.0625,1.89749s7.75585-2.64,7.09585-0.57749c-0.66,2.06333-9.48916,3.13583-9.48916,3.13583l-1.98,1.98s8.33331-2.805,5.85834-0.2475c-2.475,2.55833-8.49834,3.21833-8.49834,3.21833l-2.39333,2.8875s8.25165-4.95083,7.09586-2.145c-1.155,2.805-9.24082,4.70334-9.24082,4.70334l-1.65,1.98s7.42585-4.29084,6.6833-1.8975c-0.7425,2.3925-8.66419,4.95-8.66419,4.95l-1.32,1.81583s8.74585-5.19833,8.00331-2.55833c-0.7425,2.64083-9.07586,4.53833-9.07586,4.53833l-1.0725,1.65s8.08585-4.62,8.16834-2.3925c0.0825,2.2275-9.48916,4.45583-9.48916,4.45583l-0.165-1.89833z"/>
</g>
<use xlink:href="#f" transform="matrix(-1,0,0,1,220,0)"/>
</g>
</svg>