<?xml version="1.0" encoding="UTF-8" standalone="no"?><svg xmlns="http://www.w3.org/2000/svg" width="1260" height="630"><defs><clipPath id="a"><path fill="#00f" fill-rule="evenodd" d="M0 0h1260v630H0z"/></clipPath></defs><path fill="#006400" d="M0 0h1260v630H0z"/><path fill="#ffd200" d="M0 90h1260v450H0z"/><path fill="#d40000" d="M0 180h1260v270H0z"/><path d="M0 270h1260v90H0z"/><path stroke="#000" stroke-width="30" d="M0 0v630l420-315z" clip-path="url(#a)"/><path fill="#fff" d="M0 0v630l420-315z"/><path fill="#d40000" d="m159.78 156.622 83.19 256.028L25.179 254.416h269.203L76.592 412.65z"/><path fill="#ffd200" fill-rule="evenodd" d="M152.54223 215.85126c-2.97424-3.40609-7.37736-5.2147-11.88739-4.88133-4.50964.3326-8.59932 2.76886-11.04094 6.5746-2.58953-.0628-5.17906.12722-7.73142.56596-2.38759.41077-4.45868 1.88371-5.62968 4.00499-1.17215 2.12014-1.31546 4.65832-.39199 6.89724l8.72424-.51729c3.5743 2.01706 5.83046 5.75919 5.94771 9.86151l.98286 34.66782c-1.68561 3.48195-2.53703 7.30877-2.48837 11.17774.0598 4.65755.42916 9.30514 1.10816 13.91402.68091 4.62805-.8407 9.30744-4.11344 12.64954-5.07253 5.17982-9.48332 10.96929-13.13081 17.23428-2.80027 4.81312-2.30712 10.8597 1.23614 15.15438l9.94045 38.46167h74.60665l4.14026-32.63312c1.75765-13.85426 9.65728-26.18038 21.51095-33.56311l2.93593.83342c1.97222.55905 4.06438-.35521 4.99321-2.18336.92845-1.82815.43338-4.05788-1.18211-5.32122l-70.57559-55.18748-1.85498-23.22798c-.42801-5.35724-2.56654-10.43399-6.09984-14.48228"/><path d="m151.82722 216.4835-.0586-.0663 1.42965-1.26411.0586.0663zm-.0586-.0663c-.38548-.43644-.80583-.85142-1.24802-1.23728l1.25798-1.43808c.49431.43146.97098.90392 1.41969 1.41125zm.0115-2.67842v.003l-.6288.71923zm-1.25798 1.44459c-.44296-.38548-.90584-.73878-1.3783-1.0526l1.05566-1.59441c.55638.36938 1.08517.77134 1.58062 1.20242zm-1.3783-1.0526c-2.45158-1.62928-5.40897-2.42438-8.41999-2.20252l-.13488-1.91628c3.42716-.2529 6.80412.65945 9.61053 2.52439zm-8.41999-2.20252-.0881.008-.13449-1.91629.0877-.008zm-.2303-1.90977h.008l.0674.95795zm.14983 1.91629c-.61041.0475-1.19131.13219-1.73581.24868l-.39735-1.87068c.67133-.14331 1.33614-.24332 1.98333-.29429zm-1.73581.24868c-.56787.12032-1.12731.28011-1.67028.47246l-.63646-1.80324c.61999-.21918 1.2599-.40081 1.90939-.5399zm-1.67028.47246c-2.77729.98286-5.18979 2.86964-6.81715 5.40475l-1.60936-1.0319c1.85843-2.89684 4.61502-5.05299 7.79005-6.17609zm-6.81715 5.40475-.82767.44219.023-.95833zm-.82767.44219c-.0931-.002-.19006-.004-.25596-.004l.023-1.9159c.11304.001.19887.004.28049.004l-.046 1.91629zm-.25596-.004h-.004l.0153-.95795zm-.004 0c-.35176-.004-.70582-.008-1.05337-.004l-.0153-1.9159c.36708-.003.73762-.002 1.09934.004zm-1.05337-.004c-.3326.002-.68665.0115-1.04953.023l-.067-1.9159c.35176-.0115.71999-.023 1.10126-.023zm-1.04953.023c-1.74538.0621-3.48118.24332-5.18404.53569l-.32187-1.88563c1.80746-.31076 3.6268-.50082 5.43886-.56596zm-5.18404.53569-.0383.008-.32149-1.88563.0383-.008.32187 1.88563zm-.36402-1.87912h.004l.16094.94262-.16515-.94262zm.3303 1.88563c-.30003.0521-.59009.12377-.86483.20845l-.56021-1.827c.36249-.11189.73072-.20309 1.09474-.26708zm-.86483.20845c-.27053.0835-.54642.19121-.81886.31382l-.78628-1.74423c.32991-.14906.67861-.28355 1.04493-.39659zm-1.60859-1.43041h.003l.39314.87212zm.7928 1.74423c-1.35876.61807-2.50332 1.66185-3.23787 2.99379l-1.6768-.92117c.93726-1.70093 2.39373-3.03172 4.12187-3.81685zm-4.91812 2.08029.003-.008.8384.46059zm1.6837.90583-.0521.0966-1.68369-.90584.0521-.0966zm-1.73581-.80506v-.004l.84185.45292-.84185-.4487zm1.68369.89741c-.13258.24868-.25634.51921-.36517.80583l-1.78753-.68206c.12568-.3326.28547-.6767.46901-1.02118zm-2.1527.12798v-.004l.89357.34103-.89357-.33681zm1.78753.67363c-.10422.27666-.19312.55906-.26286.8407l-1.85497-.45637c.0877-.35827.19964-.71348.3303-1.05796zm-2.11783.38778v-.003l.92768.22799zm1.85497.44947c-.35061 1.43156-.24408 2.95777.32915 4.35024l-1.76607.72536c-.72881-1.76914-.86331-3.70573-.41805-5.52507zm-.49737 5.67106-.93955-.59546.88323-.36249zm-.11303-1.9159 8.72424-.51729.11303 1.91628-8.72424.51691zm8.72424-.51729.52035.12377-.46364.83418zm.52035.12377c.13028.0728.187.10537.22033.12491l-.97519 1.64653c-.097-.0567-.17511-.10346-.17511-.10346l.92767-1.66837zm.22033.12491c.52687.31076 1.03114.66176 1.50437 1.04302l-1.19667 1.49019c-.39889-.32149-.82767-.61922-1.28059-.8863zm1.50437 1.04302c.47169.38011.91695.79395 1.32542 1.23499l-1.39899 1.30128c-.34563-.37284-.7223-.72345-1.1231-1.04608zm1.32542 1.23499c2.06802 2.22091 3.30301 5.1507 3.3919 8.26672l-1.9159.0521c-.0751-2.6493-1.12195-5.13537-2.87499-7.01755zm3.3919 8.26672.98324 34.66743-1.91628.0525-.98286-34.66782zm.98324 34.66743-.0977.44104-.86062-.4146.95833-.0268zm-.0977.44104c-.0556.11534-.13373.28164-.2119.45215l-1.7358-.80161c.0628-.13794.13373-.28815.22684-.48012zm-1.9477-.34524v-.004l.8679.40081-.8679-.39659zm1.7358.7928c-.21075.45943-.41077.93764-.59737 1.42198l-1.78141-.68858c.19428-.50503.40962-1.01696.64298-1.5262zm-2.38223.73647.003-.003.89051.3441zm1.78792.68206c-.18354.47897-.35176.96446-.50388 1.4511l-1.827-.56902c.164-.52458.34524-1.048.54296-1.56414zm-.50388 1.4511c-.74528 2.39411-1.11237 4.90547-1.08095 7.43522l-1.9159.023c-.0345-2.72402.36287-5.43502 1.16985-8.0257l1.827.56902zm-1.08095 7.43522c.001.1617.004.32685.008.50388l-1.9159.0307c-.002-.15979-.004-.33758-.008-.5127l1.9159-.023zm.008.50388c.0115.62114.0268 1.26296.0521 1.9159l-1.9159.0674c-.023-.63225-.0414-1.28595-.0521-1.95307l1.9159-.0306zm.0521 1.9159c.0191.61041.0513 1.25032.0881 1.91513l-1.9159.10423c-.0345-.62152-.0644-1.27407-.0881-1.95192zm.0881 1.91513c.17396 3.1781.49085 6.3332.94913 9.4519l-1.89405.27589c-.47132-3.2076-.79625-6.42056-.97098-9.62356zm.94913 9.4519.008.0445-1.89406.27589-.008-.0445zm.008.0445v.003l-.94684.13488zm0 .003c.10001.69317.15442 1.38519.16323 2.06495l-1.91628.023c-.008-.60849-.0552-1.21774-.14101-1.81742l1.89406-.26937zm.16323 2.06495c.008.6767-.0268 1.36221-.10652 2.04312l-1.90096-.21727c.0674-.58741.0989-1.1936.0912-1.80401l1.91628-.023zm-.10652 2.04312c-.40426 3.46701-1.94426 6.75048-4.44259 9.30207l-1.36182-1.34036c2.19485-2.24199 3.54824-5.12886 3.90345-8.17898zm-4.44259 9.30207-.003.008-.67785-.67784zm-.003.008c-.0268.0268.1617-.21419.11073-.13679l-1.59441-1.06256c.0552-.0835.0931-.12147.12798-.15634zm.11073-.13679-.11648.13871-.68091-.67018zm-.11648.13871c-.65677.67133-1.3465 1.40244-2.06458 2.18757l-1.41431-1.29438c.64834-.70965 1.35454-1.45455 2.11707-2.23355zm-3.47889.89626v-.003l.70696.64719zm1.41431 1.28825c-.69202.75793-1.35875 1.51318-1.9933 2.25693l-1.4511-1.24265c.679-.79587 1.35761-1.56606 2.03009-2.30253zm-3.44861 1.01428h.004l.72574.62151-.72996-.62151zm1.45991 1.24265c-3.34554 3.93104-6.33473 8.1464-8.92311 12.59205l-1.65304-.95794c2.65889-4.56713 5.71207-8.87713 9.11624-12.87676zm-10.58074 11.63411h.004l.82652.47897-.83112-.47897zm1.66185.95794-.0383.0644-1.66185-.95833.0383-.064zm-.0383.0644c-.36594.63646-.66712 1.28595-.90277 1.93314l-1.79635-.65179c.2824-.77747.6288-1.52927 1.03727-2.23968zm-.90277 1.93314c-.24102.66482-.42457 1.34496-.54603 2.02357l-1.87912-.33681c.14216-.79395.35291-1.57794.6288-2.33855zm-.54603 2.02357c-.6311 3.50418.27244 7.19382 2.62823 10.04851l-1.47486 1.212c-2.71751-3.29343-3.76053-7.55324-3.03249-11.59732zm2.62823 10.04851.18699.36594-.92423.23987zm.18699.36594 9.94083 38.46168-1.84884.48012-9.94083-38.46168zm9.01622 39.6595-.92423-.7177.92423-.24025zm0-1.9159h74.60665v1.9159h-74.60665zm75.55349 1.0775-.94684.8384v-.95795zm-1.89406-.2391 4.14026-32.63313 1.89444.2391-4.14064 32.63313zm6.03815-32.39748-.003.003-.94722-.11955zm-1.90096-.23221c.0153-.11648-.0268.23336.0115-.0586l1.89444.24753c-.0345.25942.0153-.10767-.003.0433l-1.90095-.23221zm1.90402.1847v.004l-.94722-.12377.94722.11955zm-1.89444-.23911c.25443-1.99215.6311-3.94177 1.11889-5.83161l1.85535.47131c-.47591 1.8431-.83954 3.7157-1.0798 5.59941zm1.11889-5.83161c.49315-1.91169 1.10355-3.78237 1.82163-5.59596l1.78141.70352c-.69088 1.74768-1.27753 3.5402-1.74769 5.36375zm1.82163-5.59596c3.69501-9.33579 10.30792-17.35958 19.00572-22.77736l1.01045 1.62507c-8.34413 5.19745-14.68843 12.89706-18.23476 21.85581zm19.00572-22.77736.76368-.10844-.25826.92078zm.76368-.10844 2.93593.83303-.51691 1.84195-2.93593-.83303zm2.93593.83303h.003l-.26171.92117zm.003 0 .023.008-.52342 1.84194-.023-.008zm-.49315 1.84846h-.008l.26171-.92078zm.5081-1.84194c.19772.0544.41613.0912.64757.10729l-.14139 1.91628c-.32034-.023-.66252-.0847-1.01428-.18163zm.64757.10729c.22684.0153.44296.0115.64068-.0115l.22378 1.90096c-.34103.0402-.67977.0498-1.00585.0268zm.64068-.0115c1.0775-.12798 2.05959-.78092 2.5742-1.79558l1.70783.86024c-.81387 1.60323-2.36153 2.63321-4.05825 2.8363zm4.2851-.9384-.003.003-.85372-.42993zm-1.71396-.85373.0115-.023 1.71396.85372-.0115.023zm.0115-.023c.10231-.20538.18239-.41307.23796-.615l1.84232.50848c-.0916.33106-.21419.656-.36632.96024zm2.08335-.10997-.003.003-.92116-.25444zm-1.84884-.50158c.0533-.19888.0904-.41192.10652-.63225l1.91628.14101c-.023.32379-.0839.6583-.17396.99282zm2.0228-.49431v.003l-.95833-.0705zm-1.91628-.13488c.0805-1.08708-.3713-2.17761-1.26526-2.87729l1.17521-1.50513c1.41547 1.10662 2.13125 2.81867 2.00633 4.5173zm-1.26526-2.87729-70.5756-55.18748 1.17522-1.50552 70.57559 55.18787zm-70.5756-55.18748-.37053-.67785.95795-.0747zm-.37053-.67785-1.85497-23.22798 1.91589-.14982 1.85536 23.22798zm-1.85497-23.22798-.008-.0812 1.9159-.15021.008.0816zm1.90938-.2345v.003l-.95795.0751zm-1.9159.15634c-.0621-.75372-.15327-1.47065-.27052-2.1439l1.88562-.32187c.13795.79433.23987 1.56874.3008 2.30943zm-.27052-2.1439c-.12186-.70198-.27819-1.40243-.46365-2.09561l1.84846-.49277c.20002.74184.36708 1.49977.50081 2.26651zm-.46365-2.09561c-.94722-3.53521-2.69299-6.82864-5.12043-9.61015l1.43807-1.25798c2.62325 3.00643 4.50888 6.56157 5.53082 10.37536"/><path d="M152.35103 278.88128c-.008.0192.0153-.0402-.0115.0383l-1.83352-.55408c.008-.0268.0153-.0421.0402-.11151l1.80324.62765zm-.0115.0383-.008.023-.90891-.30003zm-.008.023c-.17167.51576-.31038 1.0273-.41499 1.52697l-1.8703-.38893c.12492-.59738.28126-1.17828.4671-1.73772zm-.41499 1.52697c-.10844.51921-.18776 1.03957-.23565 1.54996l-1.90058-.17166c.0552-.59738.14561-1.18939.26593-1.76723zm-.23565 1.54996c-.24984 2.65467.27167 5.35264 1.53502 7.75441l-1.69251.89051c-1.43578-2.72939-2.02664-5.79674-1.74309-8.81658zm1.53502 7.75441.0115.0192-1.69212.89051-.0115-.0192 1.69251-.89051zm.0115.0192c.24753.47016.52266.92423.81886 1.35646l-1.57909 1.0775c-.33796-.49315-.65064-1.01006-.93189-1.54345zm.81886 1.35646c.29888.43682.62151.85487.95833 1.24495l-1.44497 1.24878c-.39085-.45292-.75908-.92844-1.09245-1.41623zm.95833 1.24495c1.75305 2.02664 4.07627 3.52219 6.70028 4.26517l-.51691 1.84233c-2.98459-.84529-5.62968-2.54814-7.62834-4.85872"/><path d="m161.0358 254.35087-28.97147 19.79775-1.0775-1.57908 28.97185-19.79775"/><path d="M144.13718 222.95081v-.008h1.9159v.008zm0-.008c-.001-.78322-.31919-1.49478-.83073-2.00518l1.34688-1.35569c.86215.86139 1.39784 2.05078 1.39975 3.36087zm-.83073-2.00518c-.51078-.50963-1.22005-.82882-1.99982-.83112l.008-1.9159c1.30127.004 2.483.53646 3.34017 1.39133l-1.34687 1.35569zm-1.99675-2.74702h.003l-.003.95795zm0 1.9159h-.0153v-1.9159h.0153zm-.0153 0h-.008v-1.9159h.008zm-.008 0c-.78322.001-1.4944.31958-2.00518.83112l-1.35531-1.34688c.86139-.86253 2.05078-1.39784 3.36049-1.40014zm-2.00518.83112c-.50925.5104-.82844 1.21966-.83074 1.99982l-1.9159-.008c.004-1.30204.53646-2.48377 1.39133-3.33979l1.35531 1.34687zm-2.74664 1.99637v-.003l.95795.003zm1.9159 0v.0153h-1.9159v-.0153zm0 .0153v.008h-1.9159v-.008zm0 .008c.001.78437.31919 1.49478.83074 2.00518l-1.34688 1.35569c-.86216-.86139-1.39784-2.05193-1.39976-3.36087zm.83074 2.00518c.51078.50963 1.22004.82882 1.99981.83112l-.008 1.91589c-1.30243-.004-2.48416-.53645-3.34018-1.39132l1.34688-1.35569zm1.99636 2.74701h-.003l.003-.95794zm0-1.91589h.0153v1.91589h-.0153zm.0153 0h.008v1.91589h-.008zm.008 0c.78399-.001 1.49441-.31958 2.00518-.83112l1.35531 1.34688c-.86139.86253-2.05154 1.39784-3.36049 1.40013zm2.00518-.83112c.50925-.5104.82844-1.21966.83074-1.99943l1.9159.008c-.004 1.3009-.53645 2.48301-1.39133 3.3398l-1.35531-1.34688zm2.74664-1.99637v.003l-.95795-.003zm-1.9159 0v-.0153h1.9159v.0153"/><path d="m137.40624 313.69853.0674-.0345.85373 1.71396-.0674.0345-.85373-1.71435zm.92423 1.67718-.003.003-.42686-.85717zm-.86023-1.70745c.78436-.39659 1.52505-.85257 2.20941-1.3599l1.13804 1.53386c-.77747.57554-1.6105 1.09053-2.48722 1.53349zm2.20941-1.3599c.68628-.5081 1.3281-1.07406 1.91475-1.68446l1.37715 1.32503c-.65601.68206-1.37715 1.31852-2.15386 1.89329zm1.91475-1.68446c2.99915-3.1187 4.59663-7.4448 4.20693-11.92839l1.9159-.16515c.43874 5.03536-1.36297 9.90136-4.74568 13.41857"/><path d="m150.552 293.47315-.0671.0345-.85373-1.71397.0671-.0345.85373 1.71434zm-.92845-1.67718.008-.003.42687.85718zm.86905 1.70745c-.27282.14024-.52265.29428-.74107.45828l-1.14456-1.52697c.32686-.24562.66789-.46058 1.01658-.63876zm-.74107.45828c-.22799.17052-.4441.36403-.64067.57018l-1.38367-1.31623c.26593-.27934.56251-.54335.87978-.78092zm-.64067.57018c-.99512 1.04493-1.52391 2.49526-1.39363 3.99848l-1.9159.16515c-.17818-2.05078.55293-4.03757 1.92586-5.47986"/><path d="m161.30977 321.58667-.0153.008-.71041-1.77489.0153-.008zm-.0153.008c-.98707.39735-2.01246.8177-3.06084 1.25223l-.73417-1.76608c.99397-.41153 2.02242-.83303 3.0846-1.26104zm-3.06084 1.25223c-1.02194.42379-2.04081.85372-3.05203 1.2848l-.7495-1.75956c1.02195-.43644 2.04733-.86867 3.06736-1.29132zm-3.05203 1.2848c-5.20626 2.22129-10.36424 4.58398-15.46513 7.08308l-.8384-1.72048c5.11277-2.50484 10.30026-4.88133 15.55403-7.12216"/><path d="m160.61008 319.80833.0345-.0115.68857 1.7814-.0345.0115zm.73762 1.76531-.0153.003-.3441-.89051zm-.71922-1.77488c1.08976-.44104 2.13124-.95259 3.1141-1.52506l.95833 1.65304c-1.07673.62688-2.19868 1.17866-3.35321 1.6469zm3.1141-1.52506c.97213-.56481 1.91743-1.21123 2.82403-1.92701l1.19054 1.50551c-.94722.7472-1.96916 1.44267-3.05624 2.07454zm2.82403-1.92701c4.58398-3.61799 7.78047-8.81965 8.85797-14.70453l1.87912.34333c-1.16334 6.35734-4.60851 11.96939-9.54655 15.86671"/><path d="M151.18769 323.86199h62.25868v1.91629h-62.25868"/><path d="M164.57906 336.49543v-.008h1.9159v.008zm0-.008c-.001-1.72469-.70505-3.29113-1.83658-4.42266l1.35531-1.35569c1.47715 1.47716 2.39525 3.52257 2.39717 5.77835zm-.48549-5.77835h.004l-.67746.67784.67325-.67784zm-1.34688 1.35569c-1.12961-1.1277-2.6903-1.82815-4.41193-1.8316v-1.9159c2.24735.004 4.28395.91886 5.75881 2.39181zm-4.41193-1.8316h-.0153v-1.9159h.0153zm-.0153 0h-.008v-1.9159h.008zm-.008 0c-1.72814.001-3.29305.7016-4.42151 1.83236l-1.35569-1.34687c1.47946-1.48138 3.52449-2.39909 5.7772-2.40139zm-4.42151 1.83236c-1.1277 1.12962-1.82815 2.69069-1.8316 4.41347h-1.9159c.004-2.2485.91886-4.2851 2.39181-5.76034zm-1.8316 4.41347v.0153h-1.9159v-.0153zm0 .0153v.008h-1.9159v-.008zm0 .008c.001 1.72699.70275 3.29343 1.83236 4.4219l-1.34687 1.3553c-1.48138-1.48022-2.39909-3.52563-2.40139-5.7772zm1.83236 4.4219c1.12885 1.12731 2.69069 1.82776 4.41232 1.83121v1.9159c-2.24735-.004-4.2851-.91886-5.75919-2.39181zm4.41232 1.83121h.0153v1.9159h-.0153zm.0153 0h.008v1.9159h-.008zm.008 0c1.72393-.001 3.28998-.70505 4.4219-1.83658l1.35569 1.35531c-1.47754 1.47716-3.52257 2.39526-5.77759 2.39717zm5.77759-.48549v.004l-.67785-.67785.67785.67363zm-1.35569-1.34687c1.12731-1.12962 1.82815-2.69069 1.83121-4.41194h1.9159c-.004 2.24697-.91886 4.28357-2.39142 5.75881zm1.83121-4.41194v-.0153h1.9159v.0153"/><path d="M193.30107 336.49543v-.008h1.9159v.008zm0-.008c-.001-1.72469-.70505-3.29113-1.83696-4.42266l1.35569-1.35569c1.47716 1.47716 2.39487 3.52257 2.39717 5.77835zm-.48549-5.77835h.004l-.67785.67784.67363-.67784zm-1.34687 1.35569c-1.12962-1.1277-2.69069-1.82815-4.41232-1.8316v-1.9159c2.24735.004 4.28395.91886 5.75919 2.39181zm-4.41232-1.8316h-.0153v-1.9159h.0153zm-.0153 0h-.008v-1.9159h.008zm-.008 0c-1.72814.001-3.29458.70275-4.42305 1.83236l-1.3553-1.34687c1.48022-1.48138 3.52449-2.39909 5.77835-2.40139zm-4.42305 1.83236c-1.12731 1.12962-1.82815 2.69069-1.83121 4.41347h-1.9159c.004-2.2485.91886-4.2851 2.39181-5.76034zm-1.83121 4.41347v.0153h-1.9159v-.0153zm0 .0153v.008h-1.9159v-.008zm0 .008c.001 1.72699.70275 3.29343 1.83236 4.4219l-1.34687 1.3553c-1.48138-1.48022-2.39948-3.52563-2.40139-5.7772zm1.83236 4.4219c1.12962 1.12731 2.69031 1.82776 4.41309 1.83121v1.9159c-2.2485-.004-4.28472-.91886-5.75996-2.39181zm4.41309 1.83121h.0153v1.9159h-.0153zm.0153 0h.008v1.9159h-.008zm.008 0c1.72354-.001 3.28998-.70505 4.42151-1.83658l1.35569 1.35531c-1.47716 1.47716-3.52257 2.39526-5.7772 2.39717zm5.7772-.48549v.004l-.67785-.67785.67785.67363zm-1.35569-1.34687c1.1277-1.12962 1.82815-2.69069 1.8316-4.41194h1.9159c-.004 2.24697-.91887 4.28357-2.39181 5.75881zm1.8316-4.41194v-.0153h1.9159v.0153"/><path d="M172.38213 310.9791c.33797.10078.67555.19658 1.01007.28662l-.49316 1.84846c-.35597-.0954-.71463-.19733-1.06409-.30194zm1.01007.28662c.53147.14216 1.04301.27053 1.52965.38012l-.41958 1.86378c-.55829-.12606-1.09475-.25826-1.60323-.39544zm1.52965.38012c.51461.11495 1.02961.22148 1.5423.31612l-.34333 1.87911c-.54297-.10001-1.08516-.21189-1.61855-.33145zm1.5423.31612c2.40139.44104 4.85719.65715 7.32525.64298l.008 1.9159c-2.56462.0153-5.13652-.21382-7.67509-.67977"/><path d="M183.7894 312.60494c.33873-.001.66367-.0192.96216-.0491l.19543 1.90095c-.39736.0402-.78284.0621-1.15108.064l-.008-1.9159zm.96216-.0491h.004l.0935.95067-.0977-.95067zm.004 0c.5399-.0529 1.0775-.15289 1.60245-.29083l.48626 1.84846c-.61347.16208-1.25108.27818-1.90172.34332zm1.60245-.29083c.51576-.13603 1.02616-.31613 1.5174-.53224l.77095 1.75075c-.57553.25443-1.18057.46594-1.80209.62995zm1.5174-.53224c2.31555-1.02117 4.22609-2.88266 5.27983-5.28865l1.75075.76253c-1.25108 2.85775-3.51606 5.06679-6.25963 6.27687"/><path d="m224.06697 316.34132-62.8779-17.83817.51691-1.84233 62.8779 17.83856"/><path d="M115.39256 347.09342h87.55047v1.9159h-87.55047"/><path d="M135.603 366.12098h64.91565v1.9159H135.603"/><path d="m165.95084 359.63685-7.75425 7.62624-1.34037-1.36182 7.75426-7.62662"/><path d="m151.78162 358.27465 7.75533 7.62662-1.34036 1.36182-7.75533-7.62624"/><path d="m153.12198 359.63685-7.75521 7.62635-1.34037-1.36182 7.75522-7.62673"/><path d="m138.95165 358.27465 7.75548 7.62673-1.34036 1.36182-7.75549-7.62635"/><path d="m178.78086 359.63685-7.75533 7.62635-1.34037-1.36182 7.75533-7.62673"/><path d="m164.61048 358.27465 7.75541 7.62673-1.34036 1.36182-7.75541-7.62635"/><path d="m191.61079 359.63693-7.75533 7.62639-1.34036-1.36182 7.75533-7.62677"/><path d="m177.44049 358.27465 7.75533 7.62685-1.34036 1.36182-7.75533-7.62647"/><path d="m201.90231 362.13246-5.21703 5.13086-1.34036-1.36182 5.21703-5.13086"/><path d="m190.27043 358.27473 7.75521 7.62677-1.34036 1.36182-7.75522-7.62639"/><path d="m165.95081 349.9155-7.75395 7.62643-1.34037-1.36182 7.75395-7.62681"/><path d="m151.78158 348.5533 7.75564 7.62681-1.34036 1.36182-7.75564-7.62643"/><path d="m153.12194 349.9155-7.7551 7.62643-1.34036-1.36182 7.7551-7.62681"/><path d="m138.96261 348.54246 7.7446 7.63765-1.34037 1.36182-7.7446-7.63727"/><path d="m178.78078 349.9155-7.75506 7.62643-1.34037-1.36182 7.75507-7.62681"/><path d="m164.61044 348.5533 7.75564 7.62681-1.34036 1.36182-7.75564-7.62643"/><path d="m191.61083 349.9155-7.7551 7.62643-1.34037-1.36182 7.7551-7.62681"/><path d="m177.44042 348.5533 7.75567 7.62681-1.34036 1.36182-7.75568-7.62643"/><path d="m203.31241 351.02523-6.62709 6.5167-1.34037-1.36182 6.6271-6.51708"/><path d="m190.27046 348.5533 7.75522 7.62681-1.34036 1.36182-7.75522-7.62643"/><path d="m133.0265 228.95601-8.38513.49775-.11303-1.91628 8.3855-.49737"/><path d="m138.24464 315.42016-.0268.0115-.82307-1.7289.0268-.0115.82346 1.72891zm-.8656-1.70822.0153-.008.41153.86445zm.85372 1.71397c-1.62813.81349-3.14782 1.76799-4.54336 2.83476l-1.16027-1.51854c1.50015-1.14686 3.12177-2.16688 4.84991-3.03019zm-4.54336 2.83476c-1.39707 1.06869-2.68303 2.26268-3.84521 3.55629l-1.42275-1.27982c1.23384-1.3737 2.60869-2.64777 4.10769-3.79501zm-3.84521 3.55629c-5.95883 6.63323-8.59281 15.89085-6.58763 25.00479l-1.8703.41077c-2.14121-9.72894.67325-19.6123 7.03518-26.69538"/><path d="m139.71529 331.2133-.11726.0575-.83839-1.72048.11725-.0575zm-.96332-1.65955.008-.003.41919.86024zm.85373 1.71396c-.81694.40847-1.58905.87863-2.30713 1.40014l-1.1231-1.54881c.80583-.5855 1.66837-1.11122 2.5765-1.56529zm-2.30713 1.40014c-.72344.52572-1.39669 1.10547-2.01054 1.72699l-1.36182-1.34036c.69393-.7039 1.44765-1.35339 2.24926-1.93544zm-2.01054 1.72699c-3.1597 3.19764-4.92463 7.63678-4.69204 12.29548l-1.91628.0889c-.25942-5.19591 1.71396-10.15005 5.2465-13.72473"/><path d="M117.24612 337.8589c.13488.46058.29313.92078.47016 1.37409l-1.78102.69508c-.19351-.49545-.33605-1.68292-.48932-2.20405zm.47016 1.37409c.17626.45291.37283.89587.58358 1.32273l-1.71396.84491c-.23796-.48319-.45752-.97634-.65064-1.47256zm.58358 1.32273c1.0913 2.21248 2.66655 4.17321 4.61847 5.72433l-1.19054 1.4967c-2.17148-1.72699-3.92568-3.9092-5.14189-6.37612"/><path d="m117.19657 338.48644-2.19408 5.04954-1.75075-.76253 2.19408-5.04954"/><path d="m123.17839 347.44978-1.69863-.884.24791 1.21097zm-1.69863-.884c.2368-.45177.46058-.89396.67133-1.32197l1.72048.83878c-.23144.47132-.46365.93075-.69318 1.36719zm.67133-1.32197c.24983-.50924.46595-.9591.63953-1.33806l1.7358.7928c-.24332.53032-.4625.99282-.65485 1.38404zm.63953-1.33806c1.05604-2.29716 1.96303-4.67288 2.71253-7.10454l1.82661.56021c-.7698 2.50063-1.70745 4.95298-2.80334 7.33713"/><path d="m125.543 337.46641-.0399-.6652 1.7906-.10576zm3.15625 9.45726 1.86379-.43414.0345.20079zm0 0c-.11725-.50043-.23144-.95986-.33567-1.36182l1.84885-.48012c.13449.51576.25213.98515.35061 1.4078zm-.33567-1.36182c-.0996-.38126-.22569-.83303-.37475-1.35224l1.84233-.52381c.11304.39238.24102.86024.38127 1.39593zm1.46337-1.88026.004.004-.92117.2621.91695-.26631zm-1.83352.53224c-.66252-2.2895-1.4829-4.54567-2.45043-6.74742l1.75075-.77096c.99396 2.26038 1.84117 4.59663 2.5332 6.98614"/><path d="M134.64505 381.61639v-14.53746h1.9159v14.53746"/><path d="m134.69716 367.38624-6.51061-19.02756 1.81168-.61462 6.51061 19.02756"/><path d="m140.29201 359.63685-5.08637 5.00161-1.34036-1.3622 5.08637-5.00161"/><path d="m140.30297 349.90466-7.5857 7.46066-1.34036-1.3622 7.5857-7.46066"/></svg>